<svg width="120" height="120" viewBox="0 0 120 120" fill="none" xmlns="http://www.w3.org/2000/svg">
<path d="M63.96 42.2368H30.48V44.2368H63.96V42.2368Z" fill="#006699"/>
<path d="M63.96 35.2168H30.48V37.2168H63.96V35.2168Z" fill="#006699"/>
<path d="M63.96 49.2566H30.48V51.2566H63.96V49.2566Z" fill="#006699"/>
<path d="M37.54 94.5366H35.54V82.9966H24V80.9966H37.54V94.5366Z" fill="#006699"/>
<path d="M40.02 80.6768C41.68 77.8668 43.54 75.2168 45.48 72.6268C46.47 71.3468 47.45 70.0568 48.55 68.8168C48.83 68.4968 49.1 68.1968 49.46 67.8568C49.56 67.7668 49.65 67.6868 49.8 67.5668C49.83 67.5468 49.89 67.5068 49.95 67.4668C50.04 67.4168 50.01 67.4168 50.24 67.3168C50.33 67.2868 50.43 67.2568 50.52 67.2368C50.52 67.2368 50.6 67.2168 50.7 67.2168C50.79 67.2168 50.89 67.2168 50.99 67.2268C51.19 67.2568 51.38 67.3268 51.54 67.4168C51.72 67.5268 51.73 67.5568 51.82 67.6468C51.89 67.7268 51.96 67.8068 52.02 67.8968C52.08 67.9868 52.12 68.0768 52.16 68.1768C52.18 68.2368 52.19 68.2768 52.2 68.3268C52.3 68.7968 52.24 68.8968 52.23 69.0668C52.21 69.1668 52.19 69.3068 52.17 69.3668C52.13 69.5368 52.08 69.6568 52.04 69.7768C51.7 70.6668 51.36 71.3568 51.05 72.0768C50.74 72.7568 50.43 73.5268 50.34 73.9668C50.31 74.0468 50.35 74.1268 50.3 73.9068C50.27 73.8168 50.17 73.5568 49.94 73.3968C49.72 73.2168 49.46 73.1768 49.38 73.1768C49.2 73.1768 49.31 73.1968 49.43 73.1468C49.55 73.1068 49.72 73.0468 49.9 72.9768C50.27 72.8368 50.67 72.6468 51.25 72.5268C51.54 72.4668 51.88 72.4068 52.35 72.4568C52.81 72.4968 53.42 72.7668 53.78 73.2368C54.17 73.7268 54.24 74.2568 54.25 74.5768C54.26 74.9168 54.23 75.1568 54.21 75.3368C54.19 75.5168 54.18 75.6568 54.17 75.6568C54.17 75.6668 54.08 75.4568 53.92 75.3768C53.74 75.2768 53.59 75.3068 53.65 75.3268C53.7 75.3368 53.84 75.3168 53.99 75.2868C54.31 75.2068 54.69 75.0768 55.08 74.9468C55.87 74.6968 56.74 74.4768 57.62 74.3868C58.56 74.2568 59.57 74.5268 60.3 74.9468C61.07 75.3668 61.66 75.9168 62.35 76.3468C61.52 76.2368 60.75 75.8968 60 75.7668C59.23 75.6068 58.58 75.6268 57.94 75.8868C57.24 76.1168 56.59 76.4668 55.9 76.8468C55.55 77.0268 55.2 77.2268 54.76 77.4168C54.53 77.5068 54.29 77.6068 53.94 77.6668C53.76 77.6968 53.55 77.7068 53.3 77.6768C53.05 77.6468 52.76 77.5468 52.52 77.3768C52.03 77.0668 51.74 76.4668 51.68 76.0868C51.6 75.6868 51.62 75.4168 51.61 75.1968C51.61 74.9868 51.61 74.8168 51.59 74.7568C51.57 74.6768 51.55 74.7968 51.68 74.9768C51.78 75.1368 52.01 75.2168 52.06 75.2268C52.13 75.2368 52.06 75.2368 51.96 75.2768C51.75 75.3468 51.42 75.4868 51.05 75.6568C50.86 75.7468 50.65 75.8368 50.39 75.9268C50.13 76.0068 49.84 76.1368 49.26 76.1268C48.98 76.1168 48.52 76.0268 48.14 75.7168C47.76 75.4268 47.54 74.9868 47.47 74.6968C47.32 74.0868 47.39 73.7468 47.43 73.4368C47.65 72.2968 48.04 71.5968 48.38 70.8068C48.73 70.0668 49.14 69.3168 49.4 68.7168L49.47 68.5568C49.48 68.5268 49.47 68.5568 49.48 68.5668C49.48 68.6468 49.44 68.6368 49.51 69.0068L49.55 69.1168C49.58 69.1968 49.62 69.2868 49.67 69.3668C49.72 69.4468 49.78 69.5168 49.85 69.5868C49.93 69.6668 49.94 69.6768 50.11 69.7868C50.25 69.8768 50.44 69.9468 50.62 69.9768C50.71 69.9868 50.8 69.9968 50.89 69.9868C50.98 69.9768 51.06 69.9668 51.06 69.9668C51.13 69.9568 51.2 69.9368 51.27 69.9068C51.45 69.8268 51.39 69.8468 51.43 69.8268C51.45 69.8168 51.47 69.7968 51.46 69.8068C51.45 69.8068 51.39 69.8568 51.33 69.8968C51.09 70.0968 50.8 70.3768 50.52 70.6368L47.13 74.0068C44.81 76.2968 42.51 78.5668 40.02 80.6768Z" fill="#006699"/>
<path d="M70.52 70.2867V93.5367H35.41L25 83.1267V28.3967H70.52V50.7467C71.14 49.6067 71.81 48.4367 72.52 47.2267V26.3967H23V83.9467L34.59 95.5367H72.52V68.0967C71.84 68.8767 71.17 69.6067 70.52 70.2867Z" fill="#006699"/>
<path d="M94.1298 33.0567C95.3798 29.7667 95.2098 27.2767 92.5998 25.7167C86.2498 21.9067 81.6798 33.8967 73.6598 47.2567C65.6398 60.6167 62.0998 73.2267 63.5698 74.1067C65.1698 75.0667 74.4898 65.9267 82.5098 52.5667C86.6498 45.6567 90.9398 39.7567 93.2198 35.1267L94.7698 36.0567L84.5998 53.0167L86.4098 54.1067L97.7398 35.2167L94.1298 33.0567Z" fill="#006699"/>
</svg>
