<svg width="120" height="120" viewBox="0 0 120 120" fill="none" xmlns="http://www.w3.org/2000/svg">
<path d="M96.32 57.3299C96.32 54.3799 93.97 51.9799 91.04 51.8999V53.9099C92.86 53.9999 94.32 55.4899 94.32 57.3299C94.32 59.1699 92.86 60.6699 91.04 60.7499V62.7599C93.97 62.6799 96.32 60.2799 96.32 57.3299Z" fill="#006699"/>
<path d="M66.2399 36.99H41.3999V38.47H66.2399V36.99Z" fill="#006699"/>
<path d="M66.2399 42.2H41.3999V43.68H66.2399V42.2Z" fill="#006699"/>
<path d="M66.2399 31.78H41.3999V33.26H66.2399V31.78Z" fill="#006699"/>
<path d="M82.8798 39.54V37.54H72.3398V27H70.3398V39.54H82.8798Z" fill="#006699"/>
<path d="M37.3599 27H70.3399H72.3399H72.4699L82.8799 37.41V37.54V39.54V51.89H84.8799V36.59L73.2899 25H35.3599V69.57H37.3599V27Z" fill="#006699"/>
<path d="M82.8799 92.14H37.3599V83.93H35.3599V94.14H84.8799V62.77H82.8799V92.14Z" fill="#006699"/>
<path d="M75.56 83.9301V69.5701H37.36H35.36H24V83.9301H35.36H37.36H75.56ZM30.68 70.5701V71.5701H32.95V70.5701H34.95V71.5701H37.22V70.5701H39.22V71.5701H41.49V70.5701H43.49V71.5701H45.76V70.5701H47.76V71.5701H50.03V70.5701H52.03V71.5701H54.3V70.5701H56.3V71.5701H58.57V70.5701H60.57V71.5701H62.84V70.5701H64.84V71.5701H73.58V81.9301H26V71.5701H28.68V70.5701H30.68Z" fill="#006699"/>
<path d="M28.6802 74.0101H30.6802V71.5701V70.5701H28.6802V71.5701V74.0101Z" fill="#006699"/>
<path d="M34.9502 74.0101V71.5701V70.5701H32.9502V71.5701V74.0101H34.9502Z" fill="#006699"/>
<path d="M39.21 76.4101V71.5701V70.5701H37.21V71.5701V76.4101H39.21Z" fill="#006699"/>
<path d="M43.48 74.0101V71.5701V70.5701H41.48V71.5701V74.0101H43.48Z" fill="#006699"/>
<path d="M47.75 74.0101V71.5701V70.5701H45.75V71.5701V74.0101H47.75Z" fill="#006699"/>
<path d="M52.02 76.4101V71.5701V70.5701H50.02V71.5701V76.4101H52.02Z" fill="#006699"/>
<path d="M56.29 74.0101V71.5701V70.5701H54.29V71.5701V74.0101H56.29Z" fill="#006699"/>
<path d="M60.5498 74.0101V71.5701V70.5701H58.5498V71.5701V74.0101H60.5498Z" fill="#006699"/>
<path d="M64.8198 76.4101V71.5701V70.5701H62.8198V71.5701V76.4101H64.8198Z" fill="#006699"/>
<path d="M69.42 79.33C71.31 79.33 72.84 77.8 72.84 75.91C72.84 74.02 71.31 72.49 69.42 72.49C67.53 72.49 66 74.02 66 75.91C66 77.8 67.54 79.33 69.42 79.33ZM69.42 74.49C70.2 74.49 70.84 75.13 70.84 75.91C70.84 76.69 70.2 77.33 69.42 77.33C68.64 77.33 68 76.69 68 75.91C68 75.13 68.64 74.49 69.42 74.49Z" fill="#006699"/>
<path d="M91.0399 60.7499V53.8999V51.8899V51.8799H84.8799H82.8799H53.4899L46.1299 57.3199L53.4899 62.7599H82.8799H84.8799H91.0399V62.7499V60.7499ZM52.8199 61.7699V59.7899L49.4999 57.3299L52.8199 54.8699V52.8899H54.8199V53.8899H89.0399V60.7699H54.8199V61.7699H52.8199Z" fill="#006699"/>
<path d="M54.8198 60.7699V58.3299H54.0398V56.3299H54.8198V53.8899V52.8899H52.8198V54.8699V59.7899V61.7699H54.8198V60.7699Z" fill="#006699"/>
<path d="M84.88 58.3301V56.3301H54.82H54.04V58.3301H54.82H84.88Z" fill="#006699"/>
</svg>
