<svg width="95" height="95" viewBox="0 0 95 95" fill="none" xmlns="http://www.w3.org/2000/svg">
<path d="M39.36 85.9287C56.1274 85.9287 69.72 72.3361 69.72 55.5687C69.72 38.8014 56.1274 25.2087 39.36 25.2087C22.5926 25.2087 9 38.8014 9 55.5687C9 72.3361 22.5926 85.9287 39.36 85.9287Z" stroke="#006699" stroke-width="4" stroke-miterlimit="10"/>
<path d="M26.5907 64.8887H17.3107C16.6907 64.8887 16.1807 64.3787 16.1807 63.7587V48.3387C16.1807 47.7187 16.6907 47.2087 17.3107 47.2087H26.5907C27.2107 47.2087 27.7207 47.7187 27.7207 48.3387V50.0787C27.7207 50.6987 27.2107 51.2087 26.5907 51.2087H20.1807V60.8887H26.5907C27.2107 60.8887 27.7207 61.3987 27.7207 62.0187V63.7587C27.7207 64.3787 27.2107 64.8887 26.5907 64.8887Z" fill="#006699"/>
<path d="M26.5907 58.0486H18.1807V54.0486H26.5907C27.2107 54.0486 27.7207 54.5586 27.7207 55.1786V56.9186C27.7207 57.5386 27.2107 58.0486 26.5907 58.0486Z" fill="#006699"/>
<path d="M37.8705 65.7486C36.0305 65.7486 34.2205 64.9886 32.7205 63.5686C30.7005 61.6586 29.4905 58.7886 29.5605 56.0886C29.6205 53.4186 30.9005 50.6486 32.8905 48.8686C34.4205 47.4986 36.2905 46.8286 38.1405 46.9886C41.1605 47.2486 43.8305 49.6286 44.9505 52.9186C45.1705 53.5586 44.7605 54.2386 44.1005 54.3786L42.3805 54.7386C41.8205 54.8586 41.2805 54.5386 41.0805 53.9986C40.4405 52.3086 39.1505 51.0886 37.7805 50.9686C36.8305 50.8886 36.0405 51.3986 35.5405 51.8386C34.3805 52.8786 33.5805 54.6186 33.5405 56.1786C33.5005 57.7586 34.2605 59.5286 35.4605 60.6686C36.0305 61.2086 36.9305 61.8286 38.0605 61.7486C39.4005 61.6486 40.7205 60.5386 41.4905 58.9586C41.7405 58.4486 42.3105 58.1686 42.8605 58.3386L44.5305 58.8586C45.1705 59.0586 45.5105 59.7786 45.2305 60.3986C43.8805 63.4286 41.2405 65.5186 38.3605 65.7386C38.2105 65.7386 38.0405 65.7486 37.8705 65.7486Z" fill="#006699"/>
<path d="M55.5504 65.7487C50.8004 65.7487 46.9404 61.5387 46.9404 56.3487C46.9404 51.1587 50.8004 46.9487 55.5504 46.9487C60.3004 46.9487 64.1604 51.1587 64.1604 56.3487C64.1604 61.5387 60.3004 65.7487 55.5504 65.7487ZM55.5504 50.9487C53.0104 50.9487 50.9404 53.3687 50.9404 56.3487C50.9404 59.3287 53.0104 61.7487 55.5504 61.7487C58.0904 61.7487 60.1604 59.3287 60.1604 56.3487C60.1604 53.3687 58.1004 50.9487 55.5504 50.9487Z" fill="#006699"/>
<path d="M79.6807 17.4087C79.6807 17.4087 78.0007 21.8487 75.7207 23.8887C73.4407 25.9287 70.9207 26.4087 67.5607 27.6087C64.2007 28.8087 60.2207 33.5187 60.2207 33.5187" stroke="#006699" stroke-width="3" stroke-miterlimit="10" stroke-linecap="round" stroke-linejoin="round"/>
<path d="M66.8408 19.8086C66.8408 19.8086 69.0008 24.8486 67.5608 27.6086" stroke="#006699" stroke-width="3" stroke-miterlimit="10" stroke-linecap="round" stroke-linejoin="round"/>
<path d="M78.0001 27.0085C78.0001 27.0085 73.2601 25.6585 71.5801 26.2385" stroke="#006699" stroke-width="3" stroke-miterlimit="10" stroke-linecap="round" stroke-linejoin="round"/>
<path d="M57.7303 31.3986C57.7303 31.3986 57.1203 20.1686 61.6803 17.4086C66.2403 14.6486 81.7203 11.3686 83.2803 9.4886C84.8403 7.6086 88.4403 21.7286 84.4803 28.5686C80.5203 35.4086 76.4303 36.9686 71.5803 37.0886C66.7203 37.2086 62.1703 35.5286 62.1703 35.5286" stroke="#006699" stroke-width="3" stroke-miterlimit="10" stroke-linecap="round" stroke-linejoin="round"/>
<path d="M40.3204 25.2286C40.3204 25.2286 39.8405 23.8886 41.1605 21.2486C42.4805 18.6086 49.5605 11.5486 48.4805 9.31855C47.4005 7.08855 59.1605 17.1886 59.3405 20.2986" stroke="#006699" stroke-width="3" stroke-miterlimit="10" stroke-linecap="round" stroke-linejoin="round"/>
<path d="M50.4006 19.8086C50.4006 19.8086 49.2906 23.9786 49.7906 26.0886" stroke="#006699" stroke-width="3" stroke-miterlimit="10" stroke-linecap="round" stroke-linejoin="round"/>
</svg>
