<svg width="95" height="95" viewBox="0 0 95 95" fill="none" xmlns="http://www.w3.org/2000/svg">
<path d="M47.0698 61.1999C55.9174 61.1999 63.0898 54.0275 63.0898 45.1799C63.0898 36.3323 55.9174 29.1599 47.0698 29.1599C38.2222 29.1599 31.0498 36.3323 31.0498 45.1799C31.0498 54.0275 38.2222 61.1999 47.0698 61.1999Z" fill="#006699"/>
<path d="M57.0396 24.3C61.2646 24.3 64.6897 20.875 64.6897 16.65C64.6897 12.425 61.2646 9 57.0396 9C52.8147 9 49.3896 12.425 49.3896 16.65C49.3896 20.875 52.8147 24.3 57.0396 24.3Z" stroke="#006699" stroke-width="3" stroke-miterlimit="10"/>
<path d="M77.6695 85.1999C81.8945 85.1999 85.3195 81.7749 85.3195 77.5499C85.3195 73.3249 81.8945 69.8999 77.6695 69.8999C73.4446 69.8999 70.0195 73.3249 70.0195 77.5499C70.0195 81.7749 73.4446 85.1999 77.6695 85.1999Z" stroke="#006699" stroke-width="3" stroke-miterlimit="10"/>
<path d="M16.65 72.6C20.875 72.6 24.3 69.175 24.3 64.95C24.3 60.7251 20.875 57.3 16.65 57.3C12.425 57.3 9 60.7251 9 64.95C9 69.175 12.425 72.6 16.65 72.6Z" stroke="#006699" stroke-width="3" stroke-miterlimit="10"/>
<path d="M54.25 24.3L52 31.0501" stroke="#006699" stroke-width="3" stroke-miterlimit="10"/>
<path d="M23.0801 60.8L35.1701 53.73" stroke="#006699" stroke-width="3" stroke-miterlimit="10"/>
<path d="M56.2197 55.8899L71.8497 72.5999" stroke="#006699" stroke-width="3" stroke-miterlimit="10"/>
<path d="M39.5104 50.8601C38.5404 50.2201 37.7804 49.3501 37.2304 48.2301C36.6804 47.1101 36.4004 45.8601 36.4004 44.4601C36.4004 43.0601 36.6804 41.8101 37.2304 40.6901C37.7804 39.5701 38.5404 38.7001 39.5204 38.0601C40.5004 37.4201 41.5904 37.1101 42.7904 37.1101C43.7304 37.1101 44.5904 37.3001 45.3704 37.6701C46.1504 38.0501 46.8204 38.6001 47.3704 39.3401L46.2504 40.6301C45.3404 39.4901 44.2104 38.9301 42.8604 38.9301C41.9604 38.9301 41.1504 39.1701 40.4304 39.6501C39.7104 40.1301 39.1404 40.7901 38.7304 41.6301C38.3204 42.4701 38.1204 43.4101 38.1204 44.4501C38.1204 45.4901 38.3204 46.4301 38.7304 47.2701C39.1404 48.1101 39.7004 48.7701 40.4304 49.2501C41.1504 49.7301 41.9604 49.9701 42.8604 49.9701C44.2004 49.9701 45.3304 49.3901 46.2504 48.2501L47.3704 49.5401C46.8204 50.2801 46.1504 50.8401 45.3604 51.2201C44.5704 51.6001 43.7104 51.8001 42.7704 51.8001C41.5704 51.8101 40.4804 51.4901 39.5104 50.8601Z" fill="white"/>
<path d="M55.7005 41.7702C56.3705 42.5102 56.7105 43.6102 56.7105 45.0802V51.6502H55.1405V50.2102C54.8605 50.7202 54.4705 51.1002 53.9605 51.3702C53.4505 51.6402 52.8405 51.7702 52.1405 51.7702C51.1205 51.7702 50.3005 51.4802 49.6905 50.8902C49.0805 50.3002 48.7705 49.5302 48.7705 48.5702C48.7705 47.6102 49.0605 46.8402 49.6505 46.2602C50.2405 45.6802 51.1705 45.3902 52.4405 45.3902H55.0605V45.0002C55.0605 44.1502 54.8505 43.5002 54.4405 43.0502C54.0305 42.6002 53.4205 42.3702 52.6105 42.3702C52.0705 42.3702 51.5405 42.4802 51.0305 42.6902C50.5205 42.9002 50.0805 43.1902 49.7205 43.5402L49.0305 42.0602C49.5005 41.6102 50.0605 41.2602 50.7205 41.0202C51.3705 40.7802 52.0705 40.6602 52.8005 40.6602C54.0605 40.6602 55.0305 41.0302 55.7005 41.7702ZM54.0605 49.7502C54.5205 49.4202 54.8505 48.9402 55.0605 48.3202V46.8002H52.5105C51.1105 46.8002 50.4105 47.3602 50.4105 48.4802C50.4105 49.0302 50.5905 49.4602 50.9405 49.7702C51.3005 50.0802 51.7905 50.2402 52.4205 50.2402C53.0505 50.2502 53.6005 50.0802 54.0605 49.7502Z" fill="white"/>
</svg>
