<svg width="40" height="40" viewBox="0 0 40 40" fill="none" xmlns="http://www.w3.org/2000/svg">
<path d="M38.75 20C38.75 9.645 30.355 1.25 20 1.25C9.91313 1.25 1.68937 9.21625 1.26937 19.2C1.26437 19.3225 1.26312 19.4469 1.26062 19.57C1.2575 19.7138 1.25 19.8563 1.25 20V20.0631C1.25 30.3838 9.645 38.75 20 38.75C30.355 38.75 38.75 30.3838 38.75 20.0631L38.7487 20.0325L38.75 20ZM23.7438 37.0944C23.4156 36.9163 23.1006 36.6244 22.9725 36.2269C22.7406 35.5069 22.92 34.9481 23.1862 34.2981C23.3988 33.7775 23.1131 33.1762 23.2544 32.6312C23.53 31.5706 23.8625 30.4213 23.76 29.2819C23.6962 28.5825 23.5413 28.5506 23.0238 28.1469C22.4781 27.7188 22.4781 27.1131 22.1131 26.5719C21.7825 26.08 22.6725 24.2113 22.4244 24.0975C22.1463 23.9694 21.5138 24.1369 21.3138 23.8713C21.0988 23.585 20.9487 23.2469 20.6531 23.025C20.4625 22.8819 19.6194 22.4031 19.3944 22.4369C18.2612 22.6062 17.0337 21.5013 16.3106 20.7806C15.8125 20.2863 15.605 19.7319 15.24 19.16C14.9313 18.6756 14.4637 18.6338 14.2344 18.0331C13.9937 17.4056 14.1369 16.6019 14.0638 15.9419C13.9844 15.2325 13.6319 15.0063 13.1913 14.4637C12.2488 13.2994 11.9019 11.5619 10.1137 11.5619C9.15312 11.5619 9.22125 13.6544 8.4475 13.3738C7.5725 13.0569 6.21875 14.5556 6.23812 14.3538C6.34062 13.3075 7.415 12.7987 7.52 12.4869C7.86312 11.4631 5.98688 11.7081 6.2275 10.8544C6.345 10.4344 7.53875 10.1287 7.29187 9.87813C7.2175 9.80188 6.30438 9.16125 6.34938 9.12938C6.51875 9.01063 7.255 9.38688 7.095 8.89813C7.04125 8.73563 6.95437 8.58625 6.87187 8.43563C7.25135 8.0047 7.65183 7.59274 8.07188 7.20125C8.70563 7.14937 9.36312 7.18875 9.60125 7.235C11.1112 7.5325 11.6363 8.29688 13.1462 7.73125C13.8725 7.46 16.5494 7.93062 16.9331 8.69187C17.1419 9.10812 17.9194 8.44 18.2225 8.395C18.5475 8.34625 19.2819 8.84687 19.5056 8.54C20.095 7.73312 19.1281 7.39813 20.27 8.01938C21.0356 8.43625 22.5319 6.60313 22.0581 8.7575C21.7162 10.3106 20.46 10.345 19.5387 11.3569C18.6319 12.3531 21.3331 12.6244 21.4025 13.5244C21.6025 16.1156 22.9844 13.3131 22.6144 12.3919C21.8987 10.6075 23.4288 11.0975 24.045 12.2312C24.3869 12.8606 24.6469 12.3306 25.0656 12.1112C25.405 11.9344 25.4956 12.8925 25.5688 13.0594C25.8094 13.6138 26.6 13.7794 26.4663 14.4931C26.3175 15.28 25.7581 15.0438 25.2113 15.1769C24.6006 15.325 25.31 15.8387 25.2213 16.0262C25.125 16.2312 24.3888 16.3162 24.1925 16.4325C23.615 16.7725 23.9681 17.4356 23.5163 17.7919C23.2062 18.0369 22.8938 17.8775 22.8337 18.3363C22.7631 18.8769 21.7669 19.0506 21.8962 19.5675C21.9319 19.7094 22.2188 20.7694 22.0381 20.8256C21.955 20.8525 21.2981 19.9037 21.1188 19.8088C20.7638 19.6206 19.15 19.7744 18.9425 20.8425C18.8081 21.5331 19.9194 22.6237 20.2025 21.6725C20.5531 20.5019 20.72 22.3544 20.6356 22.4269C20.8031 22.5731 21.7831 22.1863 21.4925 22.8644C21.3694 23.1513 21.6131 23.8994 22.0481 23.6687C22.23 23.5725 22.6988 23.8625 22.7806 23.7069C22.8983 23.5276 23.0574 23.3793 23.2444 23.2744C23.6825 23.0181 24.3381 23.2587 24.8181 23.2869C25.1112 23.3037 27.5138 24.6144 27.5269 24.8775C27.5794 25.8619 29.3956 25.7337 29.6744 26.0856C30.4237 27.0394 30.1931 26.555 29.6462 27.7769C29.3706 28.3919 29.6106 29.1462 28.9431 29.5919C28.6219 29.8056 28.23 29.6987 27.9444 30.0012C27.6869 30.2744 27.7881 30.6006 27.6319 30.9163C27.4437 31.2919 24.9156 33.5638 24.7487 34.1131C24.6656 34.3888 23.9113 34.6287 24.5475 34.8931C24.9175 35.0019 23.7281 36.1263 24.3 36.5919C24.4394 36.705 24.5306 36.8006 24.5994 36.8862C24.3138 36.9625 24.0306 37.0319 23.7438 37.0944ZM22.2463 2.64812C22.2219 2.73875 22.2588 2.84562 22.4156 2.95C22.7694 3.18437 22.3144 3.705 21.8263 3.36937C21.3394 3.03375 20.2444 3.52 20.32 3.77187C20.3944 4.02375 20.7325 4.12375 21.255 3.92313C21.7762 3.72187 21.9913 3.95312 22.0788 4.19187C22.1388 4.35375 22.0788 4.44375 22.0619 4.66188C22.0462 4.88 21.4394 4.72875 20.935 4.76312C20.4294 4.79688 19.8913 4.66188 19.9069 4.37625C19.9237 4.09125 19.3687 3.57062 19.0375 3.35312C18.7069 3.13562 19.1825 2.66562 19.6213 3.0175C20.0581 3.37 20.0756 2.95062 20.5806 2.81687C20.8675 2.74063 20.7525 2.62625 20.655 2.5175C21.1925 2.53625 21.7225 2.58125 22.2463 2.64812ZM24.4444 8.19125C24.8225 8.29375 25.4794 8.77188 25.4794 8.99813C25.4794 9.225 25.1812 9.50875 25.0494 9.47625C24.0975 9.24437 23.295 8.305 22.8531 7.79063C22.0819 6.89375 22.1306 7.6625 20.9087 7.27437C20.5962 7.17438 20.1006 6.205 20.4288 5.72688C20.7569 5.24875 21.1356 5.17312 21.4381 5.3C21.7406 5.425 22.6244 4.89687 22.8275 5.52625C23.0287 6.15562 23.5844 6.95875 24.09 7.17375C24.5962 7.3875 24.065 8.08875 24.4444 8.19125ZM24.7475 11.1119C24.8988 11.4137 23.8381 10.7594 23.5856 10.4575C23.3344 10.1562 22.9544 9.47563 23.2588 9.17375C23.5613 8.8725 24.24 9.80188 24.5969 10.005C25.3025 10.4081 24.5963 10.8106 24.7475 11.1119ZM19.3763 6.54C19.4494 6.43937 19.6044 6.69125 19.7425 6.94313C19.8806 7.195 19.69 7.55 19.3763 7.49625C19.0625 7.44375 19.2006 6.78625 19.3763 6.54ZM19.3763 4.0075C19.3763 4.0075 19.6719 4.72875 19.3763 4.61125C19.0806 4.49375 19.0662 4.19188 19.3763 4.0075ZM19.4362 6.28875C19.3519 6.08813 19.3325 5.26375 19.5375 5.01375C19.84 4.645 20.3288 5.36625 20 5.65125C19.6719 5.93687 19.52 6.49063 19.4362 6.28875ZM15.6381 7.17313C15.0887 7.13375 15.0769 6.65875 15.0006 6.40688C14.9244 6.155 14.4694 6.885 14.0094 6.40688C13.5494 5.92875 14.1169 5.3 14.0156 4.92188C13.9144 4.54437 15.1006 4.92188 15.2781 4.92188C15.4556 4.92188 15.935 5.70188 16.0606 5.68875C16.1875 5.67625 16.8687 6.30562 16.8687 6.05375C16.8687 5.8025 16.9725 5.37375 17.45 5.32375C18.1825 5.24812 17.5256 6.12937 17.5 6.4725C17.4756 6.81563 18.0569 7.4125 18.27 7.66437C18.485 7.91625 17.7281 8.09313 17.6012 7.94125C17.4756 7.79 17.1469 7.94125 16.8687 8.1425C16.5919 8.34375 15.8337 7.86563 15.4806 7.71438C15.1269 7.56375 16.1875 7.21187 15.6381 7.17313ZM17.6012 3.20188C18.0894 3.37 18.3669 3.52063 18.6069 3.20188C18.8388 2.89438 19.0156 3.8725 18.8475 4.14062C18.6788 4.41 18.3594 4.34313 18.3081 4.14062C18.2581 3.94062 17.1131 3.03375 17.6012 3.20188ZM18.3081 6.23875C18.1406 6.02 18.1237 5.76875 18.3081 5.58438C18.4937 5.4 18.4338 5.18187 18.7638 5.115C18.9263 5.08125 18.9481 5.3325 18.9481 5.5675C18.9481 5.8025 19.1506 6.10437 18.9481 6.4725C18.7463 6.84062 18.4769 6.45625 18.3081 6.23875ZM19.6862 2.50813C19.6787 2.55438 19.6481 2.58187 19.5712 2.57437C19.5184 2.56541 19.4681 2.54516 19.4237 2.515C19.5119 2.51188 19.5981 2.50937 19.6862 2.50813ZM15.8681 3.21875C16.255 3.21875 16.205 3.48 16.525 3.66812C16.845 3.85562 16.6762 2.69812 16.895 3.13437C17.1137 3.57 17.7631 4.17438 17.4506 4.29125C17.1819 4.39313 16.0544 4.82812 15.9531 4.75312C15.8519 4.67812 15.7175 4.35938 15.4475 4.29125C15.1775 4.22438 14.8919 3.58687 14.7063 3.60375C14.6356 3.61 14.6294 3.48875 14.6756 3.3275C15.0002 3.22299 15.3279 3.12816 15.6581 3.04312C15.6944 3.14188 15.7494 3.21875 15.8681 3.21875ZM24.3175 21.9844C23.9144 22.4006 23.22 21.6944 22.7406 21.7194C22.2612 21.7444 22.0206 21.2413 21.6044 21.2919C21.1869 21.3413 21.7181 20.7625 22.2988 21.0656C22.8781 21.3675 24.6462 21.6437 24.3175 21.9844ZM32.3988 7.65063C32.2812 7.80063 32.1475 7.90563 32.0194 8.01625C31.6412 8.34375 30.9344 8.31875 30.8331 8.545C30.7319 8.77125 30.4794 9.47563 29.5956 9.47875C28.7119 9.48125 28.9644 10.8106 28.8888 11.19C28.8131 11.5694 28.6119 12.0181 28.3587 11.6906C28.1063 11.3637 28.005 11.4887 27.2237 10.5325C26.4425 9.57625 26.7425 9.04813 26.9956 8.77125C27.2481 8.495 27.3494 7.84 26.9956 7.94063C26.6419 8.04125 26.44 7.81437 26.5156 7.50125C26.5912 7.18813 26.97 6.95938 26.5156 6.625C26.0612 6.29125 26.3131 5.09687 25.96 4.00687C25.6062 2.91625 25.1263 3.68812 24.3438 3.73C23.5613 3.77187 23.4344 3.18437 23.7881 2.91562C27.0523 3.63746 30.0408 5.28083 32.3988 7.65063Z" fill="#006699"/>
</svg>
