<svg width="95" height="95" viewBox="0 0 95 95" fill="none" xmlns="http://www.w3.org/2000/svg">
<path d="M50.0802 28.0308H45.1602V49.2708H50.0802V28.0308Z" fill="#006699"/>
<path d="M87.16 37.5107H51.07V41.3507H91C91 39.2307 89.28 37.5107 87.16 37.5107ZM4 41.3507H44.17V37.5107H7.84C5.72 37.5107 4 39.2307 4 41.3507Z" fill="#006699"/>
<path d="M42.67 43.8708V52.4809C37.48 54.4709 33.79 59.4909 33.79 65.3809C33.79 73.0209 39.98 79.2109 47.62 79.2109C55.26 79.2109 61.45 73.0209 61.45 65.3809C61.45 59.4909 57.76 54.4709 52.57 52.4809V43.8708" stroke="#006699" stroke-width="3" stroke-miterlimit="10"/>
<path d="M64.8602 17.1509C64.8602 17.1509 63.2202 20.6909 61.1402 22.2609C59.0602 23.8309 56.8302 24.1209 53.8302 24.9609C50.8302 25.8009 47.1602 29.4709 47.1602 29.4709" stroke="#006699" stroke-width="3" stroke-miterlimit="10" stroke-linecap="round"/>
<path d="M57.4904 18.731C57.4904 18.731 56.5204 22.251 55.1504 24.431" stroke="#006699" stroke-width="3" stroke-miterlimit="10" stroke-linecap="round"/>
<path d="M47.6201 27.0309C47.6201 27.0309 48.6801 17.5009 52.7201 15.3109C58.2601 12.3109 68.4301 11.7409 69.8701 10.2709C71.3101 8.80091 71.6901 18.4309 67.9601 23.8309C64.2301 29.2309 60.2901 31.1909 56.0101 31.1009C51.7401 31.0009 49.1601 29.5309 49.1601 29.5309" stroke="#006699" stroke-width="3" stroke-miterlimit="10" stroke-linecap="round"/>
<path d="M29.3496 17.5408C29.3496 17.5408 33.2496 17.6308 35.5196 18.9008C37.7896 20.1808 38.9496 22.1108 40.9196 24.5208C42.8896 26.9308 47.7196 28.8308 47.7196 28.8308" stroke="#006699" stroke-width="3" stroke-miterlimit="10" stroke-linecap="round"/>
<path d="M33.79 23.7707C33.79 23.7707 36.66 22.4507 39.21 22.8307" stroke="#006699" stroke-width="3" stroke-miterlimit="10" stroke-linecap="round"/>
<path d="M46.9299 26.9108C46.9299 26.9108 45.5799 18.9708 42.1599 15.5508C37.5999 10.9908 26.1199 11.6208 24.6799 10.1508C23.2399 8.68079 22.8599 18.3108 26.5899 23.7108C30.3199 29.1108 34.2599 31.0708 38.5399 30.9808C42.8099 30.8908 45.3899 29.4208 45.3899 29.4208" stroke="#006699" stroke-width="3" stroke-miterlimit="10" stroke-linecap="round"/>
<path d="M80.6204 60.4007C82.2607 60.4007 83.5904 59.071 83.5904 57.4307C83.5904 55.7904 82.2607 54.4607 80.6204 54.4607C78.9801 54.4607 77.6504 55.7904 77.6504 57.4307C77.6504 59.071 78.9801 60.4007 80.6204 60.4007Z" fill="#006699"/>
<path d="M14.7395 72.2808C16.3798 72.2808 17.7095 70.9511 17.7095 69.3108C17.7095 67.6705 16.3798 66.3408 14.7395 66.3408C13.0992 66.3408 11.7695 67.6705 11.7695 69.3108C11.7695 70.9511 13.0992 72.2808 14.7395 72.2808Z" fill="#006699"/>
<path d="M75.3098 77.3209C76.9501 77.3209 78.2798 75.9911 78.2798 74.3509C78.2798 72.7106 76.9501 71.3809 75.3098 71.3809C73.6696 71.3809 72.3398 72.7106 72.3398 74.3509C72.3398 75.9911 73.6696 77.3209 75.3098 77.3209Z" fill="#006699"/>
<path d="M21.6695 58.6909C23.4092 58.6909 24.8195 57.2806 24.8195 55.5409C24.8195 53.8012 23.4092 52.3909 21.6695 52.3909C19.9298 52.3909 18.5195 53.8012 18.5195 55.5409C18.5195 57.2806 19.9298 58.6909 21.6695 58.6909Z" fill="#006699"/>
<path d="M71.7102 63.0009C72.4281 63.0009 73.0102 62.4189 73.0102 61.7009C73.0102 60.9829 72.4281 60.4009 71.7102 60.4009C70.9922 60.4009 70.4102 60.9829 70.4102 61.7009C70.4102 62.4189 70.9922 63.0009 71.7102 63.0009Z" fill="#006699"/>
<path d="M62.7504 51.2507C63.38 51.2507 63.8904 50.7403 63.8904 50.1107C63.8904 49.4811 63.38 48.9707 62.7504 48.9707C62.1207 48.9707 61.6104 49.4811 61.6104 50.1107C61.6104 50.7403 62.1207 51.2507 62.7504 51.2507Z" fill="#006699"/>
<path d="M78.55 67.4508C79.268 67.4508 79.85 66.8688 79.85 66.1508C79.85 65.4329 79.268 64.8508 78.55 64.8508C77.832 64.8508 77.25 65.4329 77.25 66.1508C77.25 66.8688 77.832 67.4508 78.55 67.4508Z" fill="#006699"/>
<path d="M25.3898 78.6208C26.1078 78.6208 26.6898 78.0387 26.6898 77.3207C26.6898 76.6028 26.1078 76.0208 25.3898 76.0208C24.6719 76.0208 24.0898 76.6028 24.0898 77.3207C24.0898 78.0387 24.6719 78.6208 25.3898 78.6208Z" fill="#006699"/>
<path d="M70.1601 55.0907C71.0106 55.0907 71.7001 54.4013 71.7001 53.5507C71.7001 52.7002 71.0106 52.0107 70.1601 52.0107C69.3096 52.0107 68.6201 52.7002 68.6201 53.5507C68.6201 54.4013 69.3096 55.0907 70.1601 55.0907Z" fill="#006699"/>
<path d="M24.08 63.4809C24.9306 63.4809 25.62 62.7914 25.62 61.9409C25.62 61.0904 24.9306 60.4009 24.08 60.4009C23.2295 60.4009 22.54 61.0904 22.54 61.9409C22.54 62.7914 23.2295 63.4809 24.08 63.4809Z" fill="#006699"/>
<path d="M31.7296 52.0309C32.79 52.0309 33.6496 51.1713 33.6496 50.1109C33.6496 49.0505 32.79 48.1909 31.7296 48.1909C30.6692 48.1909 29.8096 49.0505 29.8096 50.1109C29.8096 51.1713 30.6692 52.0309 31.7296 52.0309Z" fill="#006699"/>
<path d="M52.0398 56.0008C51.2198 55.1808 49.8598 54.9708 48.3598 55.1008C42.6898 55.5808 38.0898 60.1808 37.6098 65.8508C37.4798 67.3508 37.6898 68.7108 38.5098 69.5308C39.4198 70.4408 40.9098 70.4408 41.8198 69.5308L52.0398 59.3108C52.9498 58.4008 52.9498 56.9108 52.0398 56.0008ZM45.5098 57.9908L40.8598 62.5008C40.4398 62.9008 39.9698 63.0808 39.7898 62.9108C39.6298 62.7508 39.7498 62.3408 39.9898 61.8508C40.8898 59.9908 42.9898 57.9608 44.8798 57.1108C45.3798 56.8908 45.7898 56.7808 45.9498 56.9508C46.1198 57.1108 45.9198 57.5908 45.5098 57.9908Z" fill="#006699"/>
<path d="M56.7203 60.9908C57.5403 61.8108 57.7503 63.1708 57.6203 64.6708C57.1403 70.3408 52.5403 74.9409 46.8703 75.4208C45.3703 75.5508 44.0103 75.3408 43.1903 74.5208C42.2803 73.6108 42.2803 72.1209 43.1903 71.2109L53.4103 60.9908C54.3303 60.0808 55.8103 60.0808 56.7203 60.9908Z" fill="#006699"/>
<path d="M44.1696 43.8708H5.55957V78.9708C5.55957 82.4508 8.37957 85.2709 11.8596 85.2709H83.1396C86.6196 85.2709 89.4396 82.4508 89.4396 78.9708V43.8708H51.0696" stroke="#006699" stroke-width="3" stroke-miterlimit="10"/>
</svg>
