<svg width="45" height="45" viewBox="0 0 45 45" fill="none" xmlns="http://www.w3.org/2000/svg">
<path d="M34.0076 6.59035C31.5264 6.59035 29.1468 7.57602 27.3923 9.33052C25.6378 11.085 24.6521 13.4646 24.6521 15.9459C24.6521 18.4271 25.6378 20.8067 27.3923 22.5612C29.1468 24.3157 31.5264 25.3014 34.0076 25.3014C36.0055 25.3013 37.951 24.6617 39.5591 23.4761C41.1672 22.2906 42.3536 20.6213 42.9445 18.7128L36.231 20.5116L31.0039 17.0695L33.8096 11.4749L40.8582 9.5863C39.9836 8.64274 38.9239 7.88968 37.7452 7.37419C36.5665 6.8587 35.2941 6.59186 34.0076 6.59033V6.59035Z" fill="#006699"/>
<path d="M22.9241 19.0821L2.1735 33.3001C1.53279 35.194 3.61179 38.3125 5.75089 38.4092L26.0657 24.4962C24.4279 23.1057 23.3186 21.1939 22.9241 19.082L22.9241 19.0821Z" fill="#006699"/>
</svg>
