<svg width="455" height="65" viewBox="0 0 455 65" fill="none" xmlns="http://www.w3.org/2000/svg">
<path d="M27.0881 58.7168C16.5927 58.7168 0 51.9383 0 32.799C0 13.7595 15.6931 6.88132 28.2876 6.88132C39.7825 6.88132 47.3792 13.0617 47.679 13.3607L43.8807 17.9462C43.7808 17.9462 37.4835 12.8623 28.2876 12.8623C24.6892 12.8623 9.19596 13.9589 9.19596 32.799C9.19596 48.6487 20.0912 51.8386 27.5879 51.8386C36.484 51.8386 43.8807 46.7547 43.9807 46.7547L47.679 51.4399C47.1793 51.7389 38.0833 58.7168 27.0881 58.7168Z" fill="#006699"/>
<path d="M50.7776 58.7168L71.3686 6.88132H83.1634L103.554 58.7168H94.4584L77.166 13.2611L59.5738 58.7168H50.7776Z" fill="#006699"/>
<path d="M86.9617 25.7215H55.1757V32.6994H86.9617V25.7215Z" fill="#006699"/>
<path d="M151.134 6.78165H109.152V13.7595H151.134V6.78165Z" fill="#006699"/>
<path d="M118.048 6.78165H109.152V58.7168H118.048V6.78165Z" fill="#006699"/>
<path d="M151.134 6.78165H142.237V58.7168H151.134V6.78165Z" fill="#006699"/>
<path d="M313.062 6.78165H271.081V13.7595H313.062V6.78165Z" fill="#006699"/>
<path d="M279.977 6.78165H271.081V58.7168H279.977V6.78165Z" fill="#006699"/>
<path d="M313.062 6.78165H304.166V58.7168H313.062V6.78165Z" fill="#006699"/>
<path d="M356.943 6.78165H321.459V13.7595H356.943V6.78165Z" fill="#006699"/>
<path d="M359.042 51.7389H321.459V58.7168H359.042V51.7389Z" fill="#006699"/>
<path d="M357.943 25.7215H321.459V32.6994H357.943V25.7215Z" fill="#006699"/>
<path d="M330.955 6.78165H321.059V58.7168H330.955V6.78165Z" fill="#006699"/>
<path d="M169.026 6.78165H159.03V58.7168H169.026V6.78165Z" fill="#006699"/>
<path d="M184.419 6.78165H159.03V13.7595H184.419C188.517 13.7595 191.016 17.1487 191.016 21.2358C191.016 25.3228 188.517 28.712 184.419 28.712H159.03V35.6899H184.419C192.415 35.6899 198.913 29.2104 198.913 21.2358C198.913 13.2611 192.415 6.78165 184.419 6.78165Z" fill="#006699"/>
<path d="M421.915 6.68195H411.919V58.7168H421.915V6.68195Z" fill="#006699"/>
<path d="M439.307 58.7168H411.919V50.7421H439.307C443.805 50.7421 446.504 46.9541 446.504 42.1693C446.504 37.3845 443.805 33.5965 439.307 33.5965H411.919V25.6218H439.307C448.003 25.6218 455 32.9984 455 42.1693C455 51.3402 448.003 58.7168 439.307 58.7168Z" fill="#006699"/>
<path d="M404.022 6.78165H369.038V13.7595H404.022V6.78165Z" fill="#006699"/>
<path d="M403.922 6.78165H395.026V58.8165H403.922V6.78165Z" fill="#006699"/>
<path d="M361.041 58.7168H369.937L384.231 11.1677H375.335L361.041 58.7168Z" fill="#006699"/>
<path d="M233.997 64C251.442 64 265.583 49.897 265.583 32.5C265.583 15.103 251.442 1 233.997 1C216.553 1 202.411 15.103 202.411 32.5C202.411 49.897 216.553 64 233.997 64Z" stroke="#00CCFF" stroke-width="0.25" stroke-miterlimit="10"/>
<path d="M212.607 38.481C217.904 38.481 220.503 39.4778 223.302 40.4747C224.202 40.7737 225.201 41.1725 226.201 41.4715C225.401 40.8734 224.801 40.0759 224.202 39.2785C224.102 39.2785 223.902 39.1788 223.802 39.1788C221.003 38.182 218.204 37.1851 212.607 37.1851C209.108 37.1851 206.709 37.5839 204.71 38.182C204.81 38.6804 204.91 39.1788 205.01 39.6772C206.909 38.8797 209.208 38.481 212.607 38.481Z" fill="#00CCFF"/>
<path d="M245.192 39.0791C244.892 39.1788 244.692 39.2785 244.393 39.3782L242.993 41.3719C243.993 41.0728 244.792 40.7737 245.692 40.4747C248.491 39.4778 250.99 38.481 256.387 38.481C259.286 38.481 261.385 38.7801 263.084 39.1788C263.184 38.6804 263.284 38.182 263.384 37.6835C261.585 37.2848 259.386 36.9857 256.387 36.9857C250.79 36.9857 247.891 38.0823 245.192 39.0791Z" fill="#00CCFF"/>
<path d="M245.192 42.3687C243.993 42.7674 242.893 43.1661 241.494 43.5649L240.294 45.3592C242.493 44.9605 244.093 44.3624 245.692 43.7643C248.491 42.7674 250.99 41.7706 256.387 41.7706C258.786 41.7706 260.685 41.97 262.185 42.269C262.385 41.7706 262.485 41.2722 262.685 40.8734C260.985 40.5744 258.986 40.2753 256.387 40.2753C250.79 40.2753 247.891 41.3719 245.192 42.3687Z" fill="#00CCFF"/>
<path d="M212.607 40.2753C209.508 40.2753 207.309 40.5744 205.41 41.0728C205.51 41.5712 205.71 42.0696 205.91 42.4683C207.609 42.0696 209.708 41.7706 212.607 41.7706C217.905 41.7706 220.503 42.7674 223.302 43.7643C226.101 44.7611 228.9 45.7579 234.497 45.7579C234.797 45.7579 235.197 45.7579 235.497 45.7579L236.796 44.163C236.097 44.163 235.297 44.2627 234.497 44.2627C229.2 44.2627 226.601 43.2658 223.802 42.269C221.003 41.3718 218.204 40.2753 212.607 40.2753Z" fill="#00CCFF"/>
<path d="M212.607 43.6646C210.108 43.6646 208.209 43.8639 206.51 44.163C206.71 44.6614 206.91 45.0601 207.11 45.5585C208.609 45.2595 210.308 45.1598 212.507 45.1598C217.805 45.1598 220.404 46.1566 223.203 47.1535C225.602 48.0506 228.201 48.9478 232.599 49.1471L233.798 47.6519C228.8 47.5522 226.301 46.6551 223.703 45.7579C221.004 44.6614 218.205 43.6646 212.607 43.6646Z" fill="#00CCFF"/>
<path d="M256.387 43.6646C250.79 43.6646 247.891 44.6614 245.192 45.6582C243.293 46.356 241.494 46.9541 238.895 47.3529L237.795 48.9478C241.294 48.6487 243.593 47.8513 245.692 47.0538C248.491 46.057 250.99 45.0601 256.387 45.0601C258.186 45.0601 259.686 45.1598 260.885 45.3592C261.085 44.8608 261.285 44.462 261.485 43.9636C260.086 43.7642 258.386 43.6646 256.387 43.6646Z" fill="#00CCFF"/>
<path d="M212.607 46.9541C210.807 46.9541 209.308 47.0538 208.009 47.2532C208.308 47.7516 208.608 48.1503 208.908 48.6487C210.008 48.5491 211.207 48.4494 212.607 48.4494C217.904 48.4494 220.503 49.4462 223.302 50.443C225.201 51.1408 227.2 51.8386 230.199 52.2373L231.398 50.8418C228.1 50.5427 226.001 49.8449 223.902 49.0475C221.003 47.9509 218.204 46.9541 212.607 46.9541Z" fill="#006699"/>
<path d="M256.387 48.4494C257.387 48.4494 258.286 48.4494 259.186 48.549C259.486 48.0506 259.786 47.6519 260.086 47.1535C258.986 47.0538 257.787 46.9541 256.487 46.9541C250.89 46.9541 247.991 47.9509 245.292 48.9478C242.893 49.8449 240.594 50.6424 236.596 50.8418L235.496 52.337C240.494 52.2374 243.193 51.2405 245.792 50.3434C248.391 49.3465 250.99 48.4494 256.387 48.4494Z" fill="#006699"/>
<path d="M227.9 55.0285C227.9 54.8291 228 54.7294 228.1 54.5301L228.799 53.6329C226.8 53.2342 225.301 52.7358 223.802 52.1377C221.003 51.1408 218.204 50.144 212.607 50.144C211.707 50.144 210.807 50.144 210.108 50.2437C210.507 50.7421 210.907 51.2405 211.307 51.6392C211.707 51.6392 212.207 51.6392 212.706 51.6392C218.004 51.6392 220.603 52.6361 223.402 53.6329C224.701 54.1313 226.101 54.7294 227.9 55.0285Z" fill="#006699"/>
<path d="M256.387 50.2437C250.79 50.2437 247.891 51.2405 245.192 52.2374C242.393 53.2342 239.895 54.231 234.497 54.231C234.397 54.231 234.297 54.231 234.197 54.231L233.197 55.7263C233.597 55.7263 233.997 55.7263 234.497 55.7263C240.094 55.7263 242.993 54.7294 245.692 53.7326C248.491 52.7358 250.99 51.7389 256.387 51.7389C256.487 51.7389 256.687 51.7389 256.787 51.7389C257.187 51.2405 257.587 50.7421 257.987 50.2437C257.487 50.2437 256.887 50.2437 256.387 50.2437Z" fill="#006699"/>
<path d="M234.497 59.0158C240.094 59.0158 242.993 58.019 245.692 57.0221C247.891 56.2247 249.99 55.5269 253.389 55.2278C253.988 54.7294 254.588 54.231 255.088 53.6329C250.29 53.7326 247.691 54.7294 245.192 55.6266C242.393 56.6234 239.895 57.6202 234.497 57.6202C229.199 57.6202 226.6 56.6234 223.802 55.6266C221.103 54.6297 218.304 53.6329 212.906 53.6329C213.406 54.1313 214.006 54.6297 214.606 55.1282C218.704 55.3275 221.003 56.125 223.302 57.0221C226.001 58.019 228.899 59.0158 234.497 59.0158Z" fill="#006699"/>
<path d="M245.192 58.9161C242.393 59.913 239.895 60.9098 234.497 60.9098C229.199 60.9098 226.6 59.913 223.802 58.9161C221.902 58.2183 220.003 57.5206 217.204 57.1218C218.904 58.318 220.703 59.2152 222.602 60.0126C222.802 60.1123 223.002 60.212 223.302 60.212C224.002 60.5111 224.701 60.7104 225.501 61.0095C228.2 61.8069 231.098 62.2057 233.997 62.2057C240.094 62.2057 245.792 60.4114 250.49 57.2215C248.391 57.7199 246.692 58.318 245.192 58.9161Z" fill="#006699"/>
<path d="M222.402 28.2136H206.609C208.708 14.7563 220.303 4.78795 233.997 4.78795C247.691 4.78795 259.286 14.7563 261.385 28.2136H228.2C228.1 28.9114 228.1 29.5095 228.2 30.2073H263.684L263.584 29.1107C261.885 14.1582 249.19 2.79428 234.097 2.79428C219.004 2.79428 206.309 14.0585 204.61 29.1107L204.51 30.2073H222.102C222.102 29.6092 222.202 28.9114 222.402 28.2136Z" fill="#00CCFF"/>
<path d="M248.291 16.9494L249.69 13.7595C249.69 13.7595 236.596 10.4699 228.5 18.8433C219.803 27.8149 222.402 40.674 230.199 42.269C235.596 43.3655 239.895 41.8703 239.895 41.8703L228.799 55.1282H232.198L243.693 38.2816C243.693 38.2816 232.698 41.5712 229.499 37.2848C226.101 32.5 225.901 24.7247 231.098 20.0395C235.197 16.5506 239.495 13.7595 248.291 16.9494Z" fill="#00CCFF"/>
</svg>
