<svg width="95" height="95" viewBox="0 0 95 95" fill="none" xmlns="http://www.w3.org/2000/svg">
<path d="M47.0404 62.3899C55.518 62.3899 62.3904 55.5175 62.3904 47.0399C62.3904 38.5624 55.518 31.6899 47.0404 31.6899C38.5629 31.6899 31.6904 38.5624 31.6904 47.0399C31.6904 55.5175 38.5629 62.3899 47.0404 62.3899Z" stroke="#006699" stroke-width="3" stroke-miterlimit="10" stroke-linecap="round" stroke-linejoin="round"/>
<path d="M53.6999 18.8799L47.0399 26.0799L40.3799 18.8799" stroke="#006699" stroke-width="3" stroke-miterlimit="10" stroke-linecap="round" stroke-linejoin="round"/>
<path d="M47.04 10V26.08" stroke="#006699" stroke-width="3" stroke-miterlimit="10" stroke-linecap="round" stroke-linejoin="round"/>
<path d="M40.3799 75.21L47.0399 68.01L53.6999 75.21" stroke="#006699" stroke-width="3" stroke-miterlimit="10" stroke-linecap="round" stroke-linejoin="round"/>
<path d="M47.04 84.09V68.01" stroke="#006699" stroke-width="3" stroke-miterlimit="10" stroke-linecap="round" stroke-linejoin="round"/>
<path d="M18.8799 40.3899L26.0799 47.0399L18.8799 53.7099" stroke="#006699" stroke-width="3" stroke-miterlimit="10" stroke-linecap="round" stroke-linejoin="round"/>
<path d="M10 47.0398H26.08" stroke="#006699" stroke-width="3" stroke-miterlimit="10" stroke-linecap="round" stroke-linejoin="round"/>
<path d="M75.2 53.7099L68 47.0399L75.2 40.3899" stroke="#006699" stroke-width="3" stroke-miterlimit="10" stroke-linecap="round" stroke-linejoin="round"/>
<path d="M84.08 47.0398H68" stroke="#006699" stroke-width="3" stroke-miterlimit="10" stroke-linecap="round" stroke-linejoin="round"/>
<path d="M47.0396 35.4099C47.0396 35.4099 39.3096 47.2899 39.3096 51.1499C39.3096 55.0099 42.7696 58.1499 47.0396 58.1499C51.3096 58.1499 54.7696 55.0199 54.7696 51.1499C54.7696 47.2899 47.0396 35.4099 47.0396 35.4099ZM44.7096 55.9999C42.3496 55.5899 40.7596 53.4099 41.1496 51.1499C41.2896 50.3799 41.6496 49.6999 42.1496 49.1499C42.1196 49.2799 42.0796 49.3999 42.0596 49.5399C41.5596 52.4099 43.5696 55.1599 46.5696 55.6899C46.7496 55.7199 46.9396 55.7399 47.1196 55.7599C46.3796 56.0399 45.5596 56.1399 44.7096 55.9999Z" fill="#006699"/>
</svg>
