<svg width="97" height="97" viewBox="0 0 97 97" fill="none" xmlns="http://www.w3.org/2000/svg">
<path d="M48.5 96C74.7335 96 96 74.7335 96 48.5C96 22.2664 74.7335 1 48.5 1C22.2665 1 1 22.2664 1 48.5C1 74.7335 22.2665 96 48.5 96Z" stroke="#00CCFF" stroke-width="0.25" stroke-miterlimit="10"/>
<path d="M16.2976 57.5192C24.2409 57.5192 28.1377 59.0223 32.3342 60.5255C33.683 60.9765 35.1818 61.5777 36.6805 62.0287C35.4815 61.1268 34.5823 59.9243 33.683 58.7217C33.5332 58.7217 33.2334 58.5714 33.0835 58.5714C28.8871 57.0682 24.6906 55.5651 16.2976 55.5651C11.052 55.5651 7.45501 56.1663 4.45752 57.0682C4.60739 57.8198 4.75725 58.5714 4.90712 59.323C7.75474 58.1205 11.2019 57.5192 16.2976 57.5192Z" fill="#00CCFF"/>
<path d="M65.1559 58.4208C64.7063 58.5712 64.4065 58.7215 63.9569 58.8718L61.8586 61.8782C63.3574 61.4272 64.5564 60.9762 65.9053 60.5253C70.1018 59.0221 73.8486 57.5189 81.9418 57.5189C86.2882 57.5189 89.4355 57.9699 91.9834 58.5712C92.1333 57.8196 92.2831 57.068 92.433 56.3164C89.7353 55.7151 86.438 55.2642 81.9418 55.2642C73.5488 55.2642 69.2025 56.9177 65.1559 58.4208Z" fill="#00CCFF"/>
<path d="M65.1554 63.3814C63.3569 63.9826 61.7082 64.5839 59.61 65.1851L57.8115 67.8908C61.1088 67.2896 63.5067 66.3877 65.9047 65.4858C70.1012 63.9826 73.8481 62.4795 81.9413 62.4795C85.5383 62.4795 88.3859 62.7801 90.634 63.231C90.9338 62.4795 91.0836 61.7279 91.3834 61.1266C88.8355 60.6757 85.838 60.2247 81.9413 60.2247C73.5483 60.2247 69.202 61.8782 65.1554 63.3814Z" fill="#00CCFF"/>
<path d="M16.2966 60.2247C11.6505 60.2247 8.35323 60.6757 5.50562 61.4272C5.65549 62.1788 5.95524 62.9304 6.25499 63.5317C8.80285 62.9304 11.9502 62.4795 16.2966 62.4795C24.2399 62.4795 28.1367 63.9826 32.3332 65.4858C36.5297 66.989 40.7261 68.4921 49.1191 68.4921C49.5687 68.4921 50.1682 68.4921 50.6178 68.4921L52.5662 66.0871C51.5171 66.0871 50.3181 66.2374 49.1191 66.2374C41.1757 66.2374 37.279 64.7342 33.0825 63.2311C28.8861 61.8782 24.6896 60.2247 16.2966 60.2247Z" fill="#00CCFF"/>
<path d="M16.2979 65.3353C12.551 65.3353 9.70338 65.636 7.15552 66.0869C7.45527 66.8385 7.75502 67.4398 8.05477 68.1913C10.3029 67.7404 12.8507 67.5901 16.148 67.5901C24.0913 67.5901 27.9881 69.0933 32.1846 70.5964C35.7815 71.9493 39.6783 73.3021 46.2727 73.6028L48.0713 71.348C40.5775 71.1977 36.8307 69.8448 32.9339 68.492C28.8873 66.8385 24.6908 65.3353 16.2979 65.3353Z" fill="#00CCFF"/>
<path d="M81.9413 65.3353C73.5483 65.3353 69.202 66.8385 65.1554 68.3417C62.3078 69.3939 59.61 70.2958 55.7133 70.8971L54.0647 73.3022C59.3103 72.8512 62.7574 71.6487 65.9048 70.4461C70.1012 68.9429 73.8481 67.4398 81.9413 67.4398C84.639 67.4398 86.8872 67.5901 88.6856 67.8907C88.9854 67.1392 89.2852 66.5379 89.5849 65.7863C87.4867 65.4856 84.9388 65.3353 81.9413 65.3353Z" fill="#00CCFF"/>
<path d="M16.2968 70.2957C13.5991 70.2957 11.351 70.446 9.40259 70.7466C9.85221 71.4982 10.3018 72.0995 10.7514 72.8511C12.4001 72.7008 14.1986 72.5504 16.2968 72.5504C24.2402 72.5504 28.1369 74.0536 32.3334 75.5568C35.181 76.609 38.1785 77.6612 42.6747 78.2625L44.4732 76.1581C39.5273 75.7071 36.38 74.6549 33.2326 73.4523C28.8863 71.7988 24.6898 70.2957 16.2968 70.2957Z" fill="#006699"/>
<path d="M81.9417 72.5504C83.4404 72.5504 84.7893 72.5504 86.1382 72.7007C86.5878 71.9492 87.0374 71.3479 87.487 70.5963C85.8384 70.446 84.0399 70.2957 82.0915 70.2957C73.6986 70.2957 69.3522 71.7988 65.3056 73.302C61.7087 74.6548 58.2615 75.8574 52.2665 76.1581L50.6179 78.4128C58.1116 78.2625 62.1583 76.7593 66.055 75.4065C69.9517 73.9033 73.8484 72.5504 81.9417 72.5504Z" fill="#006699"/>
<path d="M39.2277 82.4716C39.2277 82.171 39.3776 82.0206 39.5275 81.72L40.5766 80.3672C37.5791 79.7659 35.331 79.0143 33.0829 78.1124C28.8864 76.6092 24.6899 75.1061 16.2969 75.1061C14.948 75.1061 13.5992 75.1061 12.55 75.2564C13.1495 76.008 13.7491 76.7596 14.3486 77.3608C14.9481 77.3608 15.6974 77.3608 16.4468 77.3608C24.3901 77.3608 28.2869 78.864 32.4833 80.3672C34.4317 81.1188 36.53 82.0206 39.2277 82.4716Z" fill="#006699"/>
<path d="M81.9415 75.2563C73.5485 75.2563 69.2022 76.7595 65.1556 78.2627C60.9591 79.7659 57.2122 81.269 49.119 81.269C48.9691 81.269 48.8193 81.269 48.6694 81.269L47.1707 83.5238C47.7702 83.5238 48.3696 83.5238 49.119 83.5238C57.512 83.5238 61.8583 82.0206 65.9049 80.5174C70.1014 79.0143 73.8483 77.5111 81.9415 77.5111C82.0914 77.5111 82.3911 77.5111 82.541 77.5111C83.1405 76.7595 83.74 76.0079 84.3395 75.2563C83.5901 75.2563 82.6909 75.2563 81.9415 75.2563Z" fill="#006699"/>
<path d="M49.1187 88.4842C57.5117 88.4842 61.8581 86.9811 65.9047 85.4779C69.2019 84.2754 72.3493 83.2232 77.445 82.7723C78.3443 82.0207 79.2435 81.2691 79.9929 80.3672C72.7989 80.5175 68.9022 82.0207 65.1553 83.3735C60.9588 84.8767 57.212 86.3798 49.1187 86.3798C41.1754 86.3798 37.2787 84.8767 33.0822 83.3735C29.0356 81.8703 24.8391 80.3672 16.7458 80.3672C17.4952 81.1188 18.3945 81.8703 19.2937 82.6219C25.4386 82.9226 28.8857 84.1251 32.3328 85.4779C36.3794 86.9811 40.7258 88.4842 49.1187 88.4842Z" fill="#006699"/>
<path d="M65.1555 88.3338C60.959 89.8369 57.2122 91.3401 49.1189 91.3401C41.1756 91.3401 37.2789 89.8369 33.0824 88.3338C30.2348 87.2815 27.3872 86.2293 23.1907 85.6281C25.7385 87.4319 28.4363 88.7847 31.2839 89.9873C31.5836 90.1376 31.8834 90.2879 32.333 90.2879C33.3821 90.7389 34.4312 91.0395 35.6302 91.4904C39.6768 92.693 44.0232 93.2943 48.3696 93.2943C57.5119 93.2943 66.0547 90.5886 73.0988 85.7784C69.9515 86.53 67.4036 87.4318 65.1555 88.3338Z" fill="#006699"/>
<path d="M30.9843 42.0362H7.30411C10.4515 21.7435 27.8369 6.71189 48.3697 6.71189C68.9025 6.71189 86.2879 21.7435 89.4353 42.0362H39.677C39.5271 43.0884 39.5271 43.9903 39.677 45.0425H92.8824L92.7325 43.389C90.1847 20.8416 71.1506 3.70557 48.5196 3.70557C25.8885 3.70557 6.85449 20.6913 4.30662 43.389L4.15674 45.0425H30.5346C30.5346 44.1406 30.6845 43.0884 30.9843 42.0362Z" fill="#00CCFF"/>
<path d="M69.9953 25.0506L72.0997 20.2405C72.0997 20.2405 52.4082 15.2801 40.2326 27.9066C27.155 41.4351 31.0633 60.8259 42.788 63.231C50.905 64.8845 57.3686 62.6297 57.3686 62.6297L40.6835 82.6218H45.7943L63.0807 57.2183C63.0807 57.2183 46.5459 62.1788 41.7357 55.7152C36.625 48.5 36.3243 36.7753 44.1408 29.7104C50.3038 24.4493 56.7674 20.2405 69.9953 25.0506Z" fill="#00CCFF"/>
</svg>
