<svg width="63" height="63" viewBox="0 0 63 63" fill="none" xmlns="http://www.w3.org/2000/svg">
<path d="M58.5725 12.8976C58.2973 12.7597 57.9907 12.6967 57.6834 12.7152C57.3761 12.7336 57.0792 12.8328 56.8225 13.0026L40.25 24.0976V14.4551C40.2505 14.1223 40.1562 13.7962 39.9779 13.5151C39.7997 13.2341 39.545 13.0096 39.2438 12.8682C38.9425 12.7267 38.6071 12.6741 38.277 12.7165C37.9469 12.7589 37.6357 12.8946 37.38 13.1076L23.59 24.5001H17.5V8.08511C17.5099 7.68058 17.3793 7.28512 17.1304 6.96605C16.8815 6.64698 16.5298 6.42401 16.135 6.33511L9.135 4.76011C8.87673 4.70216 8.60868 4.70355 8.35103 4.76417C8.09338 4.8248 7.85283 4.94308 7.6475 5.11011C7.4374 5.28031 7.2696 5.49687 7.15726 5.74281C7.04491 5.98875 6.99109 6.25737 7 6.52761V24.5001H5.25C4.78587 24.5001 4.34075 24.6845 4.01256 25.0127C3.68437 25.3409 3.5 25.786 3.5 26.2501V54.2501C3.5 54.7142 3.68437 55.1594 4.01256 55.4875C4.34075 55.8157 4.78587 56.0001 5.25 56.0001H57.75C58.2141 56.0001 58.6592 55.8157 58.9874 55.4875C59.3156 55.1594 59.5 54.7142 59.5 54.2501V14.4551C59.5023 14.1356 59.4171 13.8215 59.2536 13.5469C59.0901 13.2723 58.8546 13.0478 58.5725 12.8976ZM10.5 8.75011L14 9.52011V24.5001H10.5V8.75011ZM56 52.5001H7V28.0001H24.2025C24.6114 28.0009 25.0077 27.8585 25.3225 27.5976L36.75 18.1476V27.3876C36.7495 27.7055 36.8357 28.0176 36.9992 28.2902C37.1627 28.5629 37.3973 28.7859 37.678 28.9352C37.9587 29.0845 38.2747 29.1546 38.5922 29.1378C38.9097 29.1211 39.2166 29.0181 39.48 28.8401L56 17.7451V52.5001Z" fill="#F4F8FB"/>
<path d="M10.5 31.4828H24.5V34.9828H10.5V31.4828Z" fill="#F4F8FB"/>
<path d="M10.5 38.4828H24.5V41.9828H10.5V38.4828Z" fill="#F4F8FB"/>
<path d="M10.5 45.4828H24.5V48.9828H10.5V45.4828Z" fill="#F4F8FB"/>
<path d="M33.25 33.2328H36.75V38.4828H33.25V33.2328Z" fill="#F4F8FB"/>
<path d="M33.25 43.7328H36.75V48.9828H33.25V43.7328Z" fill="#F4F8FB"/>
<path d="M40.25 33.2328H43.75V38.4828H40.25V33.2328Z" fill="#F4F8FB"/>
<path d="M40.25 43.7328H43.75V48.9828H40.25V43.7328Z" fill="#F4F8FB"/>
<path d="M47.25 33.2328H50.75V38.4828H47.25V33.2328Z" fill="#F4F8FB"/>
<path d="M47.25 43.7328H50.75V48.9828H47.25V43.7328Z" fill="#F4F8FB"/>
</svg>
