<svg width="63" height="47" viewBox="0 0 63 47" fill="none" xmlns="http://www.w3.org/2000/svg">
<path d="M59.678 21.8351C58.625 21.0786 57.4311 20.2183 55.125 20.2183C52.8189 20.2183 51.625 21.0786 50.572 21.8351C49.6303 22.5101 48.8814 23.0515 47.25 23.0515V23.0589C45.6186 23.0589 44.8771 22.5249 43.928 21.8425C42.875 21.086 41.6811 20.2257 39.375 20.2257C37.321 20.2257 36.1494 20.908 35.178 21.5904V24.1343C35.4894 23.9415 35.7786 23.7338 36.053 23.5336C36.9947 22.8586 37.7436 22.3172 39.375 22.3172C41.0064 22.3172 41.7479 22.8512 42.697 23.5336C43.7426 24.2901 44.9364 25.1504 47.2426 25.1504H47.25C49.5561 25.1504 50.75 24.2901 51.803 23.5336C52.7447 22.8586 53.4936 22.3172 55.125 22.3172C56.7489 22.3172 57.4979 22.8512 58.447 23.5336C59.5 24.2901 60.6939 25.1504 63 25.1504V23.0589C61.3761 23.0663 60.6271 22.5249 59.678 21.8351ZM19.072 21.8425C18.1303 22.5175 17.3814 23.0589 15.75 23.0589C14.1261 23.0589 13.3771 22.5175 12.428 21.8351C11.375 21.0786 10.1811 20.2183 7.875 20.2183C5.56886 20.2183 4.375 21.0786 3.32203 21.8351C2.3803 22.5101 1.63136 23.0515 0 23.0515V25.1504C2.30614 25.1504 3.5 24.2901 4.55297 23.5336C5.4947 22.8586 6.24364 22.3172 7.875 22.3172C9.49894 22.3172 10.2479 22.8512 11.197 23.5336C12.25 24.2901 13.4439 25.1504 15.75 25.1504C18.0561 25.1504 19.25 24.2901 20.303 23.5336C21.2521 22.8586 21.9936 22.3172 23.625 22.3172C25.2564 22.3172 25.9979 22.8512 26.947 23.5336C27.2214 23.7338 27.5106 23.9341 27.822 24.1343V21.5904C26.8506 20.908 25.679 20.2257 23.625 20.2257C21.3189 20.2257 20.125 21.0934 19.072 21.8425Z" fill="#F4F8FB"/>
<path d="M34.4365 9.27856H28.5636V27.0789H34.4365V9.27856Z" fill="#F4F8FB"/>
<path d="M31.5 0L26.8655 9.27844H36.142L31.5 0Z" fill="#F4F8FB"/>
<path d="M8.06041 33.0418C8.26804 30.6832 12.2352 29.274 15.142 29.3927C18.1303 29.5188 21.5858 31.3136 21.5636 33.1975C21.5488 34.4213 20.0731 35.5264 18.9608 35.9566C17.5445 36.5054 17.018 35.8527 14.66 36.1865C12.5689 36.4832 12.3538 37.0913 11.2638 36.8837C9.58054 36.5647 7.91211 34.6735 8.06041 33.0418Z" fill="#F4F8FB"/>
<path d="M22.2457 31.106C22.2457 30.0083 24.1218 28.9032 25.7531 28.8142C27.2659 28.7326 28.3559 29.5855 30.5286 31.2914C31.7743 32.2704 31.9968 32.708 32.0042 33.1382C32.019 34.0356 31.0476 34.8737 30.1207 35.1481C29.5127 35.3262 28.8008 35.2965 26.1906 33.9318C23.5582 32.5523 22.2457 31.8699 22.2457 31.106Z" fill="#F4F8FB"/>
<path d="M33.0423 31.7883C32.9904 30.8093 36.3124 29.8377 38.4258 29.4817C40.7171 29.096 44.6472 28.9106 45.0253 30.1047C45.27 30.8909 44.0243 32.352 42.6302 32.6264C40.9099 32.9676 40.7467 31.8699 38.9597 32.2852C37.7955 32.5522 37.0243 32.7747 35.8082 32.9379C34.5476 33.1011 33.0719 32.4336 33.0423 31.7883Z" fill="#F4F8FB"/>
<path d="M44.3877 34.0137C44.3581 32.8566 47.428 31.6625 50.0381 31.529C51.8771 31.4326 55.1769 31.7812 55.5403 33.2868C55.822 34.4587 54.2723 36.031 52.7225 36.5799C51.499 37.0101 50.446 36.743 48.7924 36.298C47.2945 35.8975 44.4174 35.1262 44.3877 34.0137Z" fill="#F4F8FB"/>
<path d="M42.1927 43.5663C41.1324 43.4995 40.6133 42.2164 41.3326 41.4377C42.1631 40.5476 42.9639 39.9691 43.5349 39.6057C44.6324 38.9085 47.465 37.1137 50.0084 38.2113C51.0169 38.6489 52.3146 39.6799 52.1959 40.6811C52.0179 42.2164 48.6218 42.9062 47.0646 43.2251C45.8855 43.4699 44.2319 43.685 42.1927 43.5663Z" fill="#F4F8FB"/>
<path d="M29.0159 43.1582C28.9046 42.7132 31.5667 41.0889 34.7182 41.2224C35.8157 41.2669 37.929 41.3559 38.7076 42.8244C39.1229 43.618 39.0339 44.597 38.678 45.309C37.9216 46.8072 36.0678 46.9407 35.482 46.9852C34.3104 47.0742 32.4788 46.7702 32.0561 45.717C31.7743 45.0124 32.3527 44.5303 32.0339 43.9592C31.4703 42.9357 29.1197 43.5661 29.0159 43.1582Z" fill="#F4F8FB"/>
<path d="M20.4586 41.8752C20.1398 42.3202 21.4597 43.7442 22.1567 44.5007C23.4544 45.9025 24.1069 46.6071 25.1154 46.6813C25.9163 46.7406 27.0211 46.4291 27.5847 45.4946C28.1483 44.5675 28.0296 43.2695 27.3548 42.6243C27.0211 42.3053 26.4353 42.2386 25.2786 42.1199C23.7065 41.9568 23.5286 42.1273 22.1122 41.9716C20.9555 41.8381 20.5995 41.6749 20.4586 41.8752Z" fill="#F4F8FB"/>
<path d="M18.2638 38.189C18.3009 37.21 21.5784 36.6463 23.6176 36.2903C26.6579 35.7637 27.7405 36.1123 28.2966 36.3571C29.4312 36.8466 30.8475 37.9294 30.6621 38.7972C30.4916 39.5982 29.0308 39.88 27.4884 40.1767C26.3464 40.3992 24.2405 40.7775 21.6081 40.0284C20.8147 39.8059 18.2341 39.0642 18.2638 38.189Z" fill="#F4F8FB"/>
<path d="M11.3083 38.4636C11.7384 37.885 14.4153 39.2794 15.5869 39.8876C16.803 40.5254 18.7013 41.5119 18.5456 42.3426C18.4418 42.9136 17.3962 43.2548 16.6473 43.2993C13.607 43.4996 10.7595 39.2052 11.3083 38.4636Z" fill="#F4F8FB"/>
<path d="M33.1017 36.5646C33.1091 35.2592 36.7648 34.1912 39.3008 34.0577C40.465 33.9984 43.0307 33.8649 43.6388 35.1702C44.1282 36.2234 43.1716 37.8626 42.0519 38.671C39.0265 40.8589 33.0943 38.2334 33.1017 36.5646Z" fill="#F4F8FB"/>
</svg>
