<svg width="63" height="63" viewBox="0 0 63 63" fill="none" xmlns="http://www.w3.org/2000/svg">
<path d="M60.5933 58.1778L57.5187 61.2513C55.1985 63.5707 51.4365 63.5707 49.1163 61.2513L32.5309 44.6812C30.2107 42.3617 30.2107 38.601 32.5309 36.2816L35.6055 33.2081C37.9257 30.8886 41.6877 30.8886 44.008 33.2081L60.5933 49.7878C62.9135 52.1072 62.9135 55.8679 60.5933 58.1778Z" fill="#F4F8FB"/>
<path d="M16.022 9.66029L4.3731 0.687988L0 5.0596L8.97536 16.7045L13.6349 17.6972L33.0274 37.0831L36.4075 33.7042L17.015 14.3183L16.022 9.66029Z" fill="#F4F8FB"/>
<path d="M61.6627 8.62927L52.4868 17.802C50.4244 19.8637 47.1207 19.9019 45.106 17.8879C43.0913 15.8739 43.1295 12.5714 45.192 10.5096L54.3678 1.33689C48.7821 -1.20208 41.8978 -0.123495 37.2096 4.5631C33.333 8.43837 31.9294 13.8218 32.9893 18.7279L3.62839 48.0788C0.439271 51.2668 0.381982 56.3734 3.49471 59.4851C6.60745 62.5967 11.7158 62.5395 14.9049 59.3514L44.2658 30.0005C49.1736 31.06 54.5588 29.6569 58.4354 25.7816C63.1236 21.1046 64.2025 14.2226 61.6627 8.62927ZM6.8939 56.0966C5.61443 54.8175 5.63352 52.7081 6.95118 51.4004C8.25929 50.0928 10.3695 50.0641 11.6489 51.3432C12.9284 52.6222 12.9093 54.7316 11.5916 56.0393C10.2835 57.347 8.17336 57.3756 6.8939 56.0966Z" fill="#F4F8FB"/>
<path d="M60.5932 49.7875L44.0079 33.2078C41.7354 30.9361 38.0975 30.8979 35.7678 33.0646L17.015 14.3183L16.022 9.66029L4.3731 0.687988L0 5.0596L8.97536 16.7045L13.6349 17.6972L32.3877 36.4436C30.2202 38.7726 30.2584 42.4187 32.5309 44.6809L49.1162 61.2606C51.4365 63.58 55.1985 63.58 57.5187 61.2606L60.5932 58.1871C62.9135 55.8677 62.9135 52.1069 60.5932 49.7875Z" fill="#F4F8FB"/>
</svg>
