<svg width="63" height="63" viewBox="0 0 63 63" fill="none" xmlns="http://www.w3.org/2000/svg">
<path d="M58.3297 39.0872L51.0858 28.2559C50.9568 25.971 50.4789 23.738 49.6631 21.6106C49.3893 20.8969 48.7041 20.4258 47.9397 20.4258H45.9991V14.7656C45.9991 13.7463 45.1728 12.9199 44.1534 12.9199H41.7629C41.6839 12.7174 41.6005 12.5163 41.5127 12.3171L43.2034 10.6265C43.9237 9.90638 43.9242 8.73682 43.2034 8.01626L37.9829 2.79587C37.2622 2.07519 36.0935 2.07519 35.3727 2.79587L33.6822 4.48641C33.4828 4.39856 33.2819 4.31513 33.0792 4.23613V1.8457C33.0792 0.826383 32.2528 0 31.2335 0H23.8507C22.8314 0 22.005 0.826383 22.005 1.8457V4.23626C21.8025 4.31525 21.6014 4.39868 21.4022 4.48641L19.7115 2.79587C18.9908 2.07519 17.8221 2.07519 17.1013 2.79587L11.881 8.01614C11.1606 8.73621 11.1601 9.90577 11.881 10.6263L13.5716 12.317C13.4839 12.5162 13.4005 12.7173 13.3216 12.9198H10.9309C9.91159 12.9198 9.08521 13.7462 9.08521 14.7655V20.4257H7.54712C6.78226 20.4257 6.09664 20.8974 5.82323 21.6118C1.38998 33.1992 7.34434 46.2354 19.1308 50.4178V61.1543C19.1308 62.1736 19.9571 63 20.9765 63H42.0175C43.0368 63 43.8632 62.1736 43.8632 61.1543V51.6797H49.2772C50.2966 51.6797 51.1229 50.8533 51.1229 49.834V41.959H56.7954C58.2677 41.959 59.1492 40.3127 58.3297 39.0872ZM12.7766 16.6113H14.6448C15.4689 16.6113 16.1931 16.0651 16.4195 15.2727C16.6597 14.4319 16.9986 13.6153 17.4267 12.8456C17.8273 12.1252 17.7016 11.2263 17.1187 10.6436L15.7964 9.32129L18.4066 6.7111L19.7289 8.03324C20.3116 8.61623 21.2105 8.74199 21.9309 8.34122C22.7007 7.91314 23.5173 7.5744 24.3579 7.33421C25.1502 7.10793 25.6967 6.38355 25.6967 5.5595V3.69141H29.3881V5.55963C29.3881 6.38379 29.9344 7.10805 30.7269 7.33433C31.5676 7.5744 32.3841 7.91327 33.1539 8.34135C33.8742 8.74187 34.7731 8.61623 35.356 8.03336L36.6781 6.71122L39.2884 9.32142L37.966 10.6436C37.3832 11.2264 37.2574 12.1252 37.658 12.8456C38.0861 13.6154 38.4249 14.4319 38.6651 15.2726C38.8913 16.0649 39.6157 16.6113 40.4398 16.6113H42.308V20.4258H34.6589C35.9586 15.7154 32.3991 11.0742 27.5424 11.0742C22.7168 11.0742 19.1199 15.678 20.4303 20.4258H12.7767V16.6113H12.7766ZM24.4203 20.4258C22.8769 17.9791 24.6383 14.7656 27.5422 14.7656C30.4452 14.7656 32.2097 17.9819 30.6626 20.4258H24.4203ZM49.2774 38.2676C48.258 38.2676 47.4317 39.094 47.4317 40.1133V47.9883H42.0176C40.9983 47.9883 40.1719 48.8147 40.1719 49.834V59.3086H22.8223V49.0699C22.8223 48.244 22.2736 47.5187 21.479 47.2938C11.6542 44.5145 5.81154 34.075 8.86286 24.1172H46.625C47.1002 25.6671 47.3672 27.2749 47.4203 28.9132C47.4505 29.8427 47.59 29.4996 53.3407 38.2676H49.2774Z" fill="#F4F8FB"/>
</svg>
