<svg width="71" height="71" viewBox="0 0 71 71" fill="none" xmlns="http://www.w3.org/2000/svg">
<path d="M57.3141 58.5938C54.898 58.5938 53.6473 57.6811 52.5519 56.8785C51.5575 56.1547 50.7807 55.5882 49.0716 55.5882C47.3625 55.5882 46.5779 56.1626 45.5912 56.8785C44.4881 57.6811 43.2374 58.5938 40.8213 58.5938C38.4053 58.5938 37.1545 57.6811 36.0514 56.8785C35.057 56.1547 34.2802 55.5882 32.5711 55.5882C30.862 55.5882 30.0851 56.1626 29.0907 56.8785C27.9876 57.6811 26.7369 58.5938 24.3208 58.5938C21.9048 58.5938 20.654 57.6811 19.5509 56.8785C18.5565 56.1547 17.7719 55.5882 16.0706 55.5882C14.3615 55.5882 13.5768 56.1626 12.5902 56.8785C11.4871 57.6811 10.2363 58.5938 7.82031 58.5938V56.3671C9.5294 56.3671 10.314 55.7928 11.3006 55.0768C12.4038 54.2743 13.6545 53.3616 16.0706 53.3616C18.4866 53.3616 19.7373 54.2743 20.8405 55.0768C21.8349 55.8006 22.6195 56.375 24.3208 56.375C26.0299 56.375 26.8145 55.8006 27.8012 55.0847C28.9043 54.2821 30.155 53.3694 32.5711 53.3694C34.9871 53.3694 36.2379 54.2821 37.341 55.0847C38.3354 55.8085 39.1122 56.375 40.8213 56.375C42.5304 56.375 43.315 55.8006 44.3017 55.0847C45.4048 54.2821 46.6555 53.3694 49.0716 53.3694C51.4876 53.3694 52.7384 54.2821 53.8415 55.0847C54.8359 55.8085 55.6127 56.375 57.3218 56.375V58.5938H57.3141Z" fill="#006699"/>
<path d="M54.9213 49.1916C49.9805 44.4236 41.8157 41.3 32.5633 41.3C23.3109 41.3 15.1383 44.4236 10.1975 49.1916C9.28853 50.0728 8.48837 51.0012 7.8125 51.9847C10.2285 51.9847 11.4793 51.072 12.5824 50.2695C13.5768 49.5456 14.3614 48.9792 16.0628 48.9792C17.7718 48.9792 18.5565 49.5535 19.5431 50.2695C20.6462 51.072 21.897 51.9847 24.313 51.9847C26.729 51.9847 27.9798 51.072 29.0829 50.2695C30.0773 49.5456 30.8542 48.9792 32.5633 48.9792C34.2724 48.9792 35.057 49.5535 36.0436 50.2695C37.1467 51.072 38.3975 51.9847 40.8135 51.9847C43.2295 51.9847 44.4803 51.072 45.5834 50.2695C46.5778 49.5456 47.3547 48.9792 49.0638 48.9792C50.7729 48.9792 51.5497 49.5535 52.5441 50.2695C53.6472 51.072 54.8902 51.9847 57.3063 51.9847C56.6381 51.0012 55.838 50.0649 54.9213 49.1916Z" fill="#006699"/>
<path d="M63.2104 29.8128C62.4957 21.8741 56.4828 14.5254 47.6887 11.9054C38.8947 9.28536 29.9142 12.1572 25.0666 18.4358C24.5849 19.0652 24.1421 19.7182 23.7459 20.4106L26.0532 21.0951L33.0682 23.188L35.3289 23.8647L42.3828 25.9654L36.5874 45.9028L36.5563 46.0208L35.9504 48.09L38.1877 48.7588L38.7937 46.6896L38.8248 46.5715L44.6201 26.6342L51.674 28.7349L53.9347 29.4116L60.9497 31.5044L63.257 32.1889C63.3036 31.3943 63.2803 30.5996 63.2104 29.8128ZM27.4904 19.1518C30.6522 15.501 35.492 13.3216 40.7591 13.2193C38.2576 14.8323 35.9038 17.5782 34.0548 21.1109L27.4904 19.1518ZM36.3543 21.7954C39.3375 16.3508 43.6102 13.0541 47.0595 14.0769C50.5087 15.0998 52.3344 20.2218 51.9304 26.4375L36.3543 21.7954ZM54.2299 27.1298C54.5717 23.1408 54.0668 19.5452 52.8238 16.8228C57.1897 19.8048 60.0952 24.2895 60.8021 29.089L54.2299 27.1298Z" fill="#006699"/>
</svg>
