<svg width="71" height="71" viewBox="0 0 71 71" fill="none" xmlns="http://www.w3.org/2000/svg">
<path d="M45.1819 48.3481C44.2347 48.3481 43.7456 47.9676 43.3186 47.6259C42.9304 47.3231 42.6276 47.0824 41.9599 47.0824C41.2922 47.0824 40.9816 47.3231 40.6012 47.6259C40.1664 47.9598 39.6772 48.3481 38.7378 48.3481C37.7984 48.3481 37.3015 47.9676 36.8744 47.6259C36.4863 47.3231 36.1835 47.0824 35.5158 47.0824C34.8481 47.0824 34.5453 47.3231 34.1571 47.6259C33.7223 47.9598 33.2331 48.3481 32.2937 48.3481C31.3465 48.3481 30.8574 47.9676 30.4303 47.6259C30.0422 47.3231 29.7316 47.0824 29.0717 47.0824C28.404 47.0824 28.0934 47.3231 27.713 47.6259C27.2782 47.9598 26.7891 48.3481 25.8496 48.3481V47.4163C26.5173 47.4163 26.8279 47.1756 27.2083 46.8728C27.6431 46.5389 28.1322 46.1506 29.0717 46.1506C30.0111 46.1506 30.508 46.5311 30.935 46.8728C31.3232 47.1756 31.6338 47.4163 32.2937 47.4163C32.9614 47.4163 33.272 47.1756 33.6524 46.8728C34.0872 46.5389 34.5763 46.1506 35.5158 46.1506C36.463 46.1506 36.9521 46.5311 37.3791 46.8728C37.7673 47.1756 38.0701 47.4163 38.7378 47.4163C39.4055 47.4163 39.7161 47.1756 40.0965 46.8728C40.5313 46.5389 41.0204 46.1506 41.9599 46.1506C42.8993 46.1506 43.3962 46.5311 43.8232 46.8728C44.2114 47.1756 44.5142 47.4163 45.1819 47.4163V48.3481Z" fill="#006699"/>
<path d="M45.1819 44.1551C44.2347 44.1551 43.7456 43.7746 43.3186 43.4329C42.9304 43.1301 42.6276 42.8894 41.9599 42.8894C41.2922 42.8894 40.9816 43.1301 40.6012 43.4329C40.1664 43.7668 39.6772 44.1551 38.7378 44.1551C37.7984 44.1551 37.3015 43.7746 36.8744 43.4329C36.4863 43.1301 36.1835 42.8894 35.5158 42.8894C34.8481 42.8894 34.5453 43.1301 34.1571 43.4329C33.7223 43.7668 33.2331 44.1551 32.2937 44.1551C31.3465 44.1551 30.8574 43.7746 30.4303 43.4329C30.0422 43.1301 29.7316 42.8894 29.0717 42.8894C28.404 42.8894 28.0934 43.1301 27.713 43.4329C27.2782 43.7668 26.7891 44.1551 25.8496 44.1551V43.2233C26.5173 43.2233 26.8279 42.9826 27.2083 42.6798C27.6431 42.3459 28.1322 41.9576 29.0717 41.9576C30.0111 41.9576 30.508 42.3381 30.935 42.6798C31.3232 42.9826 31.6338 43.2233 32.2937 43.2233C32.9614 43.2233 33.272 42.9826 33.6524 42.6798C34.0872 42.3459 34.5763 41.9576 35.5158 41.9576C36.463 41.9576 36.9521 42.3381 37.3791 42.6798C37.7673 42.9826 38.0701 43.2233 38.7378 43.2233C39.4055 43.2233 39.7161 42.9826 40.0965 42.6798C40.5313 42.3459 41.0204 41.9576 41.9599 41.9576C42.8993 41.9576 43.3962 42.3381 43.8232 42.6798C44.2114 42.9826 44.5142 43.2233 45.1819 43.2233V44.1551Z" fill="#006699"/>
<path d="M45.1819 39.9621C44.2347 39.9621 43.7456 39.5816 43.3186 39.24C42.9304 38.9372 42.6276 38.6965 41.9599 38.6965C41.2922 38.6965 40.9816 38.9372 40.6012 39.24C40.1664 39.5739 39.6772 39.9621 38.7378 39.9621C37.7984 39.9621 37.3015 39.5816 36.8744 39.24C36.4863 38.9372 36.1835 38.6965 35.5158 38.6965C34.8481 38.6965 34.5453 38.9372 34.1571 39.24C33.7223 39.5739 33.2331 39.9621 32.2937 39.9621C31.3465 39.9621 30.8574 39.5816 30.4303 39.24C30.0422 38.9372 29.7316 38.6965 29.0717 38.6965C28.404 38.6965 28.0934 38.9372 27.713 39.24C27.2782 39.5739 26.7891 39.9621 25.8496 39.9621V39.0304C26.5173 39.0304 26.8279 38.7897 27.2083 38.4868C27.6431 38.1529 28.1322 37.7647 29.0717 37.7647C30.0111 37.7647 30.508 38.1452 30.935 38.4868C31.3232 38.7897 31.6338 39.0304 32.2937 39.0304C32.9614 39.0304 33.272 38.7897 33.6524 38.4868C34.0872 38.1529 34.5763 37.7647 35.5158 37.7647C36.463 37.7647 36.9521 38.1452 37.3791 38.4868C37.7673 38.7897 38.0701 39.0304 38.7378 39.0304C39.4055 39.0304 39.7161 38.7897 40.0965 38.4868C40.5313 38.1529 41.0204 37.7647 41.9599 37.7647C42.8993 37.7647 43.3962 38.1452 43.8232 38.4868C44.2114 38.7897 44.5142 39.0304 45.1819 39.0304V39.9621Z" fill="#006699"/>
<path d="M22.48 39.2323L18.4427 36.9028L33.4816 10.8522C33.9008 10.1301 34.6695 9.6875 35.5002 9.6875C36.331 9.6875 37.0996 10.1301 37.5188 10.8522L45.376 24.456L41.3387 26.7854L35.5002 16.6757L22.48 39.2323Z" fill="#006699"/>
<path d="M46.0281 22.8177V30.2485L39.5918 26.537L46.0281 22.8177Z" fill="#006699"/>
<path d="M61.3232 59.0789H44.126V54.42H57.2859L45.7409 34.4103L49.7782 32.0809L63.3418 55.5847C63.7611 56.3068 63.7611 57.192 63.3418 57.9141C62.9226 58.6363 62.1539 59.0789 61.3232 59.0789Z" fill="#006699"/>
<path d="M45.2129 60.4687L38.7766 56.7494L45.2129 53.0301V60.4687Z" fill="#006699"/>
<path d="M35.5002 58.9624H9.73932C8.90858 58.9624 8.13995 58.5198 7.72069 57.7977C7.30144 57.0756 7.30144 56.1904 7.72069 55.4683L14.0639 44.4812L18.1011 46.8106L13.7766 54.3036H35.5002V58.9624Z" fill="#006699"/>
<path d="M12.317 44.7297L18.7533 41.0181V48.449L12.317 44.7297Z" fill="#006699"/>
</svg>
