<svg width="71" height="71" viewBox="0 0 71 71" fill="none" xmlns="http://www.w3.org/2000/svg">
<path d="M25.7709 53.853C25.4674 53.853 25.1638 53.7348 24.938 53.4984C24.4866 53.0333 24.4944 52.2846 24.9536 51.8274C25.5374 51.2442 39.4241 37.5381 47.753 38.4445C55.895 39.3272 68.6219 51.2994 69.159 51.8117C69.6338 52.2609 69.6571 53.0018 69.2135 53.4826C68.7698 53.9555 68.0303 53.987 67.5633 53.5378C67.4387 53.4195 54.8675 41.5971 47.4961 40.8011C41.518 40.1627 30.3713 49.7625 26.5805 53.522C26.3625 53.7427 26.0667 53.853 25.7709 53.853Z" fill="#006699"/>
<path d="M15.5994 19.8401L6.77545 14.0625L2.93785e-05 24.6714L8.82394 30.449L15.5994 19.8401Z" fill="#006699"/>
<path d="M20.7016 21.1136L17.5839 19.0722L8.95291 32.5865L12.0707 34.6279L20.7016 21.1136Z" fill="#006699"/>
<path d="M23.8092 24.7521L20.6914 22.7107L13.4975 33.9748L16.6153 36.0162L23.8092 24.7521Z" fill="#006699"/>
<path d="M43.9154 53.1673C44.8827 53.1673 45.6668 52.3734 45.6668 51.394C45.6668 50.4146 44.8827 49.6206 43.9154 49.6206C42.9481 49.6206 42.164 50.4146 42.164 51.394C42.164 52.3734 42.9481 53.1673 43.9154 53.1673Z" fill="#006699"/>
<path d="M49.4109 54.9407C50.3782 54.9407 51.1624 54.1467 51.1624 53.1673C51.1624 52.1879 50.3782 51.394 49.4109 51.394C48.4437 51.394 47.6595 52.1879 47.6595 53.1673C47.6595 54.1467 48.4437 54.9407 49.4109 54.9407Z" fill="#006699"/>
<path d="M36.326 53.8766C37.1385 53.8766 37.7972 53.2097 37.7972 52.387C37.7972 51.5643 37.1385 50.8974 36.326 50.8974C35.5135 50.8974 34.8549 51.5643 34.8549 52.387C34.8549 53.2097 35.5135 53.8766 36.326 53.8766Z" fill="#006699"/>
<path d="M40.9264 55.3269C41.5154 55.3269 41.9928 54.8434 41.9928 54.2471C41.9928 53.6507 41.5154 53.1673 40.9264 53.1673C40.3374 53.1673 39.86 53.6507 39.86 54.2471C39.86 54.8434 40.3374 55.3269 40.9264 55.3269Z" fill="#006699"/>
<path d="M34.8549 50.1959C35.4438 50.1959 35.9213 49.7125 35.9213 49.1162C35.9213 48.5198 35.4438 48.0364 34.8549 48.0364C34.2659 48.0364 33.7885 48.5198 33.7885 49.1162C33.7885 49.7125 34.2659 50.1959 34.8549 50.1959Z" fill="#006699"/>
<path d="M27.8492 39.5873C28.4382 39.5873 28.9157 39.1039 28.9157 38.5075C28.9157 37.9112 28.4382 37.4278 27.8492 37.4278C27.2603 37.4278 26.7828 37.9112 26.7828 38.5075C26.7828 39.1039 27.2603 39.5873 27.8492 39.5873Z" fill="#006699"/>
<path d="M34.8549 41.0533C35.4438 41.0533 35.9213 40.5699 35.9213 39.9735C35.9213 39.3772 35.4438 38.8937 34.8549 38.8937C34.2659 38.8937 33.7885 39.3772 33.7885 39.9735C33.7885 40.5699 34.2659 41.0533 34.8549 41.0533Z" fill="#006699"/>
<path d="M31.0484 36.9549C31.8265 36.9549 32.4573 36.3162 32.4573 35.5283C32.4573 34.7404 31.8265 34.1017 31.0484 34.1017C30.2703 34.1017 29.6395 34.7404 29.6395 35.5283C29.6395 36.3162 30.2703 36.9549 31.0484 36.9549Z" fill="#006699"/>
<path d="M37.9373 39.1617C38.5263 39.1617 39.0037 38.6783 39.0037 38.0819C39.0037 37.4856 38.5263 37.0022 37.9373 37.0022C37.3484 37.0022 36.8709 37.4856 36.8709 38.0819C36.8709 38.6783 37.3484 39.1617 37.9373 39.1617Z" fill="#006699"/>
<path d="M37.4469 36.1273C38.0359 36.1273 38.5133 35.6439 38.5133 35.0475C38.5133 34.4512 38.0359 33.9677 37.4469 33.9677C36.8579 33.9677 36.3805 34.4512 36.3805 35.0475C36.3805 35.6439 36.8579 36.1273 37.4469 36.1273Z" fill="#006699"/>
<path d="M31.3987 32.4466C31.9877 32.4466 32.4651 31.9632 32.4651 31.3668C32.4651 30.7705 31.9877 30.287 31.3987 30.287C30.8098 30.287 30.3323 30.7705 30.3323 31.3668C30.3323 31.9632 30.8098 32.4466 31.3987 32.4466Z" fill="#006699"/>
<path d="M21.9023 38.6888C22.4912 38.6888 22.9687 38.2054 22.9687 37.609C22.9687 37.0127 22.4912 36.5293 21.9023 36.5293C21.3133 36.5293 20.8359 37.0127 20.8359 37.609C20.8359 38.2054 21.3133 38.6888 21.9023 38.6888Z" fill="#006699"/>
<path d="M19.2401 37.6169C19.8291 37.6169 20.3065 37.1335 20.3065 36.5371C20.3065 35.9408 19.8291 35.4574 19.2401 35.4574C18.6512 35.4574 18.1737 35.9408 18.1737 36.5371C18.1737 37.1335 18.6512 37.6169 19.2401 37.6169Z" fill="#006699"/>
<path d="M25.3583 41.3134C25.9473 41.3134 26.4247 40.8299 26.4247 40.2336C26.4247 39.6372 25.9473 39.1538 25.3583 39.1538C24.7694 39.1538 24.2919 39.6372 24.2919 40.2336C24.2919 40.8299 24.7694 41.3134 25.3583 41.3134Z" fill="#006699"/>
<path d="M22.6495 42.803C23.2385 42.803 23.7159 42.3196 23.7159 41.7232C23.7159 41.1269 23.2385 40.6434 22.6495 40.6434C22.0606 40.6434 21.5831 41.1269 21.5831 41.7232C21.5831 42.3196 22.0606 42.803 22.6495 42.803Z" fill="#006699"/>
<path d="M22.9686 33.2663C23.5576 33.2663 24.035 32.7828 24.035 32.1865C24.035 31.5902 23.5576 31.1067 22.9686 31.1067C22.3797 31.1067 21.9022 31.5902 21.9022 32.1865C21.9022 32.7828 22.3797 33.2663 22.9686 33.2663Z" fill="#006699"/>
<path d="M25.6464 32.1865C26.1622 32.1865 26.5804 31.7631 26.5804 31.2407C26.5804 30.7184 26.1622 30.2949 25.6464 30.2949C25.1305 30.2949 24.7123 30.7184 24.7123 31.2407C24.7123 31.7631 25.1305 32.1865 25.6464 32.1865Z" fill="#006699"/>
<path d="M27.7869 34.4406C28.3372 34.4406 28.7833 33.989 28.7833 33.4318C28.7833 32.8746 28.3372 32.4229 27.7869 32.4229C27.2367 32.4229 26.7906 32.8746 26.7906 33.4318C26.7906 33.989 27.2367 34.4406 27.7869 34.4406Z" fill="#006699"/>
<path d="M28.4564 30.5944C28.9722 30.5944 29.3904 30.171 29.3904 29.6486C29.3904 29.1263 28.9722 28.7028 28.4564 28.7028C27.9405 28.7028 27.5223 29.1263 27.5223 29.6486C27.5223 30.171 27.9405 30.5944 28.4564 30.5944Z" fill="#006699"/>
<path d="M19.9252 34.6534C20.3035 34.6534 20.6102 34.3429 20.6102 33.9598C20.6102 33.5768 20.3035 33.2663 19.9252 33.2663C19.5469 33.2663 19.2402 33.5768 19.2402 33.9598C19.2402 34.3429 19.5469 34.6534 19.9252 34.6534Z" fill="#006699"/>
<path d="M21.9645 35.6938C22.4116 35.6938 22.774 35.3268 22.774 34.8741C22.774 34.4214 22.4116 34.0544 21.9645 34.0544C21.5174 34.0544 21.155 34.4214 21.155 34.8741C21.155 35.3268 21.5174 35.6938 21.9645 35.6938Z" fill="#006699"/>
<path d="M24.6812 29.6486C25.2142 29.6486 25.6464 29.2111 25.6464 28.6713C25.6464 28.1316 25.2142 27.694 24.6812 27.694C24.1481 27.694 23.7159 28.1316 23.7159 28.6713C23.7159 29.2111 24.1481 29.6486 24.6812 29.6486Z" fill="#006699"/>
<path d="M34.598 36.151C35.0408 36.151 35.3997 35.7875 35.3997 35.3391C35.3997 34.8908 35.0408 34.5273 34.598 34.5273C34.1552 34.5273 33.7962 34.8908 33.7962 35.3391C33.7962 35.7875 34.1552 36.151 34.598 36.151Z" fill="#006699"/>
<path d="M31.5934 40.4622C32.0748 40.4622 32.4652 40.0669 32.4652 39.5794C32.4652 39.0919 32.0748 38.6967 31.5934 38.6967C31.1119 38.6967 30.7216 39.0919 30.7216 39.5794C30.7216 40.0669 31.1119 40.4622 31.5934 40.4622Z" fill="#006699"/>
<path d="M24.4165 46.4601C24.898 46.4601 25.2883 46.0648 25.2883 45.5773C25.2883 45.0898 24.898 44.6946 24.4165 44.6946C23.935 44.6946 23.5447 45.0898 23.5447 45.5773C23.5447 46.0648 23.935 46.4601 24.4165 46.4601Z" fill="#006699"/>
<path d="M22.2681 30.7441C22.6464 30.7441 22.9531 30.4336 22.9531 30.0506C22.9531 29.6675 22.6464 29.357 22.2681 29.357C21.8898 29.357 21.5831 29.6675 21.5831 30.0506C21.5831 30.4336 21.8898 30.7441 22.2681 30.7441Z" fill="#006699"/>
<path d="M21.0071 32.683C21.3295 32.683 21.5909 32.4184 21.5909 32.0919C21.5909 31.7654 21.3295 31.5008 21.0071 31.5008C20.6847 31.5008 20.4233 31.7654 20.4233 32.0919C20.4233 32.4184 20.6847 32.683 21.0071 32.683Z" fill="#006699"/>
<path d="M35.1818 33.8574C35.5042 33.8574 35.7656 33.5927 35.7656 33.2663C35.7656 32.9398 35.5042 32.6751 35.1818 32.6751C34.8593 32.6751 34.598 32.9398 34.598 33.2663C34.598 33.5927 34.8593 33.8574 35.1818 33.8574Z" fill="#006699"/>
<path d="M33.7962 32.423C34.1186 32.423 34.38 32.1583 34.38 31.8318C34.38 31.5054 34.1186 31.2407 33.7962 31.2407C33.4738 31.2407 33.2124 31.5054 33.2124 31.8318C33.2124 32.1583 33.4738 32.423 33.7962 32.423Z" fill="#006699"/>
<path d="M39.5875 35.4653C39.9099 35.4653 40.1713 35.2006 40.1713 34.8741C40.1713 34.5477 39.9099 34.283 39.5875 34.283C39.2651 34.283 39.0037 34.5477 39.0037 34.8741C39.0037 35.2006 39.2651 35.4653 39.5875 35.4653Z" fill="#006699"/>
<path d="M41.2844 36.7421C41.6068 36.7421 41.8682 36.4774 41.8682 36.1509C41.8682 35.8245 41.6068 35.5598 41.2844 35.5598C40.962 35.5598 40.7006 35.8245 40.7006 36.1509C40.7006 36.4774 40.962 36.7421 41.2844 36.7421Z" fill="#006699"/>
<path d="M24.7123 48.8955C25.0347 48.8955 25.2961 48.6308 25.2961 48.3044C25.2961 47.9779 25.0347 47.7133 24.7123 47.7133C24.3899 47.7133 24.1285 47.9779 24.1285 48.3044C24.1285 48.6308 24.3899 48.8955 24.7123 48.8955Z" fill="#006699"/>
<path d="M26.5804 45.995C26.9029 45.995 27.1642 45.7304 27.1642 45.4039C27.1642 45.0775 26.9029 44.8128 26.5804 44.8128C26.258 44.8128 25.9966 45.0775 25.9966 45.4039C25.9966 45.7304 26.258 45.995 26.5804 45.995Z" fill="#006699"/>
<path d="M22.2681 44.8838C22.5905 44.8838 22.8519 44.6191 22.8519 44.2927C22.8519 43.9662 22.5905 43.7015 22.2681 43.7015C21.9456 43.7015 21.6843 43.9662 21.6843 44.2927C21.6843 44.6191 21.9456 44.8838 22.2681 44.8838Z" fill="#006699"/>
<path d="M19.5671 39.7528C19.8895 39.7528 20.1509 39.4882 20.1509 39.1617C20.1509 38.8352 19.8895 38.5706 19.5671 38.5706C19.2447 38.5706 18.9833 38.8352 18.9833 39.1617C18.9833 39.4882 19.2447 39.7528 19.5671 39.7528Z" fill="#006699"/>
<path d="M20.4233 41.2425C20.7457 41.2425 21.0071 40.9778 21.0071 40.6514C21.0071 40.3249 20.7457 40.0602 20.4233 40.0602C20.1009 40.0602 19.8395 40.3249 19.8395 40.6514C19.8395 40.9778 20.1009 41.2425 20.4233 41.2425Z" fill="#006699"/>
<path d="M31.8425 53.4589C32.5174 53.4589 33.0645 52.9049 33.0645 52.2215C33.0645 51.5381 32.5174 50.9841 31.8425 50.9841C31.1675 50.9841 30.6204 51.5381 30.6204 52.2215C30.6204 52.9049 31.1675 53.4589 31.8425 53.4589Z" fill="#006699"/>
<path d="M47.0679 50.1881C47.7429 50.1881 48.29 49.6341 48.29 48.9507C48.29 48.2673 47.7429 47.7133 47.0679 47.7133C46.393 47.7133 45.8458 48.2673 45.8458 48.9507C45.8458 49.6341 46.393 50.1881 47.0679 50.1881Z" fill="#006699"/>
<path d="M54.3227 51.6068C55.0449 51.6068 55.6304 51.014 55.6304 50.2827C55.6304 49.5514 55.0449 48.9586 54.3227 48.9586C53.6004 48.9586 53.015 49.5514 53.015 50.2827C53.015 51.014 53.6004 51.6068 54.3227 51.6068Z" fill="#006699"/>
<path d="M51.715 48.864C52.4372 48.864 53.0227 48.2712 53.0227 47.5399C53.0227 46.8086 52.4372 46.2158 51.715 46.2158C50.9928 46.2158 50.4073 46.8086 50.4073 47.5399C50.4073 48.2712 50.9928 48.864 51.715 48.864Z" fill="#006699"/>
<path d="M39.6965 50.0147C40.3715 50.0147 40.9186 49.4607 40.9186 48.7773C40.9186 48.0939 40.3715 47.5399 39.6965 47.5399C39.0216 47.5399 38.4744 48.0939 38.4744 48.7773C38.4744 49.4607 39.0216 50.0147 39.6965 50.0147Z" fill="#006699"/>
<path d="M28.9156 44.2927C29.7281 44.2927 30.3868 43.6257 30.3868 42.803C30.3868 41.9803 29.7281 41.3134 28.9156 41.3134C28.1031 41.3134 27.4445 41.9803 27.4445 42.803C27.4445 43.6257 28.1031 44.2927 28.9156 44.2927Z" fill="#006699"/>
<path d="M24.7123 36.5371C25.5248 36.5371 26.1834 35.8702 26.1834 35.0475C26.1834 34.2248 25.5248 33.5579 24.7123 33.5579C23.8998 33.5579 23.2411 34.2248 23.2411 35.0475C23.2411 35.8702 23.8998 36.5371 24.7123 36.5371Z" fill="#006699"/>
<path d="M39.86 46.7281C40.3328 46.7281 40.7162 46.3399 40.7162 45.8611C40.7162 45.3823 40.3328 44.9941 39.86 44.9941C39.3871 44.9941 39.0037 45.3823 39.0037 45.8611C39.0037 46.3399 39.3871 46.7281 39.86 46.7281Z" fill="#006699"/>
<path d="M43.316 45.6798C43.7889 45.6798 44.1723 45.2917 44.1723 44.8128C44.1723 44.334 43.7889 43.9459 43.316 43.9459C42.8431 43.9459 42.4598 44.334 42.4598 44.8128C42.4598 45.2917 42.8431 45.6798 43.316 45.6798Z" fill="#006699"/>
<path d="M46.523 44.6867C46.9959 44.6867 47.3793 44.2986 47.3793 43.8197C47.3793 43.3409 46.9959 42.9528 46.523 42.9528C46.0502 42.9528 45.6668 43.3409 45.6668 43.8197C45.6668 44.2986 46.0502 44.6867 46.523 44.6867Z" fill="#006699"/>
<path d="M50.3995 44.6867C50.8724 44.6867 51.2558 44.2986 51.2558 43.8197C51.2558 43.3409 50.8724 42.9528 50.3995 42.9528C49.9266 42.9528 49.5433 43.3409 49.5433 43.8197C49.5433 44.2986 49.9266 44.6867 50.3995 44.6867Z" fill="#006699"/>
<path d="M54.3226 46.5546C54.7955 46.5546 55.1789 46.1665 55.1789 45.6877C55.1789 45.2088 54.7955 44.8207 54.3226 44.8207C53.8498 44.8207 53.4664 45.2088 53.4664 45.6877C53.4664 46.1665 53.8498 46.5546 54.3226 46.5546Z" fill="#006699"/>
<path d="M62.1144 53.8767C62.7335 53.8767 63.2353 53.3685 63.2353 52.7417C63.2353 52.1149 62.7335 51.6068 62.1144 51.6068C61.4954 51.6068 60.9935 52.1149 60.9935 52.7417C60.9935 53.3685 61.4954 53.8767 62.1144 53.8767Z" fill="#006699"/>
<path d="M58.0589 50.0856C58.678 50.0856 59.1798 49.5775 59.1798 48.9507C59.1798 48.3239 58.678 47.8157 58.0589 47.8157C57.4399 47.8157 56.938 48.3239 56.938 48.9507C56.938 49.5775 57.4399 50.0856 58.0589 50.0856Z" fill="#006699"/>
<path d="M54.5951 55.4687C55.2227 55.4687 55.7315 54.9535 55.7315 54.318C55.7315 53.6825 55.2227 53.1673 54.5951 53.1673C53.9674 53.1673 53.4586 53.6825 53.4586 54.318C53.4586 54.9535 53.9674 55.4687 54.5951 55.4687Z" fill="#006699"/>
</svg>
