<svg width="71" height="71" viewBox="0 0 71 71" fill="none" xmlns="http://www.w3.org/2000/svg">
<path d="M66.6049 32.6655C65.4297 31.5337 64.0973 30.2466 61.5234 30.2466C58.9496 30.2466 57.6172 31.5337 56.442 32.6655C55.391 33.6752 54.5551 34.4851 52.7344 34.4851V34.4962C50.9137 34.4962 50.0861 33.6973 49.0267 32.6766C47.8516 31.5448 46.5191 30.2577 43.9453 30.2577C41.6529 30.2577 40.3453 31.2785 39.2611 32.2993V36.1051C39.6087 35.8166 39.9315 35.5059 40.2377 35.2063C41.2887 34.1966 42.1246 33.3867 43.9453 33.3867C45.766 33.3867 46.5936 34.1855 47.6529 35.2063C48.8199 36.3381 50.1523 37.6252 52.7261 37.6252H52.7344C55.3082 37.6252 56.6406 36.3381 57.8158 35.2063C58.8669 34.1966 59.7027 33.3867 61.5234 33.3867C63.3359 33.3867 64.1717 34.1855 65.2311 35.2063C66.4062 36.3381 67.7387 37.6252 70.3125 37.6252V34.4962C68.5001 34.5073 67.6642 33.6973 66.6049 32.6655ZM21.2858 32.6766C20.2347 33.6862 19.3988 34.4962 17.5781 34.4962C15.7657 34.4962 14.9298 33.6862 13.8705 32.6655C12.6953 31.5337 11.3629 30.2466 8.78906 30.2466C6.21524 30.2466 4.88281 31.5337 3.70763 32.6655C2.65658 33.6752 1.82071 34.4851 0 34.4851V37.6252C2.57382 37.6252 3.90625 36.3381 5.08143 35.2063C6.13248 34.1966 6.96835 33.3867 8.78906 33.3867C10.6015 33.3867 11.4374 34.1855 12.4967 35.2063C13.6719 36.3381 15.0043 37.6252 17.5781 37.6252C20.1519 37.6252 21.4844 36.3381 22.6596 35.2063C23.7189 34.1966 24.5465 33.3867 26.3672 33.3867C28.1879 33.3867 29.0155 34.1855 30.0748 35.2063C30.381 35.5059 30.7038 35.8055 31.0514 36.1051V32.2993C29.9672 31.2785 28.6596 30.2577 26.3672 30.2577C23.7934 30.2577 22.4609 31.5559 21.2858 32.6766Z" fill="#006699"/>
<path d="M38.4335 13.8806H31.8789V40.51H38.4335V13.8806Z" fill="#006699"/>
<path d="M35.1562 0L29.9837 13.8806H40.337L35.1562 0Z" fill="#006699"/>
<path d="M8.99599 49.4308C9.22772 45.9024 13.6554 43.7943 16.8995 43.9718C20.2347 44.1604 24.0913 46.8456 24.0665 49.6639C24.05 51.4946 22.403 53.1479 21.1616 53.7914C19.5809 54.6125 18.9933 53.6361 16.3616 54.1354C14.0278 54.5792 13.7878 55.489 12.5712 55.1784C10.6926 54.7013 8.83047 51.8719 8.99599 49.4308Z" fill="#006699"/>
<path d="M24.8279 46.5349C24.8279 44.8928 26.9217 43.2395 28.7424 43.1064C30.4307 42.9843 31.6473 44.2603 34.0721 46.8123C35.4625 48.2769 35.7108 48.9316 35.719 49.5751C35.7356 50.9177 34.6514 52.1715 33.6169 52.582C32.9383 52.8483 32.1438 52.8039 29.2307 50.7624C26.2927 48.6986 24.8279 47.6778 24.8279 46.5349Z" fill="#006699"/>
<path d="M36.8776 47.5557C36.8197 46.0911 40.5273 44.6376 42.886 44.105C45.4432 43.528 49.8295 43.2506 50.2516 45.037C50.5247 46.2132 49.1343 48.399 47.5784 48.8095C45.6584 49.3199 45.4763 47.6778 43.4818 48.2991C42.1825 48.6986 41.3218 49.0314 39.9646 49.2755C38.5576 49.5196 36.9107 48.521 36.8776 47.5557Z" fill="#006699"/>
<path d="M49.5399 50.8843C49.5068 49.1534 52.933 47.367 55.8462 47.1673C57.8986 47.023 61.5814 47.5445 61.9869 49.7969C62.3014 51.55 60.5718 53.9023 58.8421 54.7234C57.4765 55.3669 56.3014 54.9675 54.4558 54.3017C52.7841 53.7026 49.573 52.5486 49.5399 50.8843Z" fill="#006699"/>
<path d="M47.0901 65.1755C45.9067 65.0757 45.3274 63.1561 46.1301 61.9911C47.057 60.6596 47.9508 59.7942 48.5881 59.2505C49.8129 58.2075 52.9743 55.5224 55.813 57.1645C56.9385 57.8191 58.3868 59.3614 58.2544 60.8593C58.0558 63.1561 54.2654 64.188 52.5274 64.6651C51.2116 65.0313 49.366 65.3531 47.0901 65.1755Z" fill="#006699"/>
<path d="M32.3838 64.5652C32.2596 63.8994 35.2307 61.4695 38.748 61.6692C39.9728 61.7358 42.3315 61.8689 43.2004 64.0659C43.6639 65.2531 43.5646 66.7177 43.1673 67.7829C42.3232 70.0242 40.2542 70.2239 39.6004 70.2905C38.2928 70.4236 36.2486 69.9687 35.7769 68.3932C35.4624 67.3391 36.1079 66.6179 35.7521 65.7635C35.1231 64.2323 32.4996 65.1754 32.3838 64.5652Z" fill="#006699"/>
<path d="M22.8333 62.6458C22.4775 63.3115 23.9506 65.4419 24.7285 66.5736C26.1768 68.6707 26.9051 69.7248 28.0306 69.8357C28.9244 69.9245 30.1576 69.4585 30.7865 68.0604C31.4155 66.6735 31.2831 64.7317 30.53 63.7664C30.1576 63.2893 29.5038 63.1894 28.2127 63.0119C26.4582 62.7678 26.2596 63.023 24.6789 62.79C23.3878 62.5903 22.9906 62.3462 22.8333 62.6458Z" fill="#006699"/>
<path d="M20.3837 57.1313C20.4251 55.6667 24.0831 54.8234 26.3589 54.2908C29.7521 53.503 30.9604 54.0245 31.5811 54.3907C32.8473 55.123 34.428 56.7429 34.2211 58.0411C34.0308 59.2394 32.4004 59.6611 30.679 60.1049C29.4045 60.4378 27.0541 61.0036 24.1162 59.883C23.2306 59.5501 20.3506 58.4406 20.3837 57.1313Z" fill="#006699"/>
<path d="M12.6208 57.5417C13.1008 56.6762 16.0884 58.7622 17.396 59.6721C18.7532 60.6263 20.8719 62.102 20.6981 63.3447C20.5822 64.1991 19.4153 64.7095 18.5795 64.776C15.1863 65.0756 12.0083 58.6513 12.6208 57.5417Z" fill="#006699"/>
<path d="M36.9439 54.7013C36.9521 52.7484 41.0322 51.1507 43.8626 50.9509C45.1619 50.8622 48.0254 50.6625 48.704 52.6153C49.2502 54.1909 48.1826 56.643 46.9329 57.8524C43.5563 61.1256 36.9356 57.1978 36.9439 54.7013Z" fill="#006699"/>
</svg>
