<svg width="50" height="50" viewBox="0 0 50 50" fill="none" xmlns="http://www.w3.org/2000/svg">
<path d="M25.0002 4.16663C26.7293 4.16648 28.3929 4.82788 29.65 6.01518C30.907 7.20249 31.6622 8.82573 31.7606 10.552L31.771 10.9375L31.7731 27.5041L31.9397 27.6479C33.8812 29.3788 35.1033 31.7746 35.3647 34.3625L35.4043 34.8875L35.4168 35.4166C35.4171 37.1329 34.9934 38.8227 34.1832 40.3357C33.373 41.8487 32.2015 43.1381 30.7729 44.0892C29.3443 45.0404 27.7028 45.6238 25.9943 45.7876C24.2859 45.9514 22.5634 45.6905 20.9801 45.0282C19.3968 44.3658 18.0017 43.3225 16.9188 41.991C15.8359 40.6595 15.0987 39.081 14.7729 37.3959C14.4471 35.7109 14.5427 33.9714 15.0512 32.3322C15.5597 30.693 16.4654 29.2048 17.6877 28L18.0627 27.6458L18.2272 27.5041L18.2293 10.9375C18.229 9.27351 18.8414 7.6677 19.9496 6.42651C21.0578 5.18532 22.5843 4.39568 24.2377 4.20829L24.6168 4.17704L25.0002 4.16663ZM25.0002 7.29163C24.0849 7.2917 23.2031 7.63607 22.5299 8.25631C21.8568 8.87655 21.4416 9.72729 21.3668 10.6395L21.3543 10.9375V29.05L20.7106 29.5187C19.4806 30.4134 18.5612 31.6702 18.0811 33.1133C17.6009 34.5564 17.584 36.1136 18.0327 37.5668C18.4815 39.0199 19.3734 40.2965 20.5836 41.2176C21.7938 42.1387 23.2618 42.6584 24.782 42.7038C26.3022 42.7492 27.7986 42.3182 29.0616 41.471C30.3247 40.6237 31.2913 39.4028 31.826 37.979C32.3607 36.5552 32.4368 34.9998 32.0437 33.5306C31.6505 32.0614 30.8078 30.7519 29.6335 29.7854L29.2918 29.5208L28.6481 29.052L28.646 10.9375C28.646 10.4587 28.5517 9.98459 28.3685 9.54226C28.1853 9.09993 27.9167 8.69801 27.5782 8.35947C27.2396 8.02092 26.8377 7.75237 26.3954 7.56915C25.953 7.38593 25.4789 7.29163 25.0002 7.29163V7.29163ZM25.0002 16.6666C25.4146 16.6666 25.812 16.8312 26.105 17.1243C26.398 17.4173 26.5627 17.8147 26.5627 18.2291V30.4479C27.7503 30.8212 28.765 31.6074 29.4231 32.6642C30.0812 33.7209 30.3391 34.9784 30.1503 36.2089C29.9614 37.4394 29.3382 38.5616 28.3936 39.3724C27.4489 40.1832 26.2451 40.6289 25.0002 40.6289C23.7552 40.6289 22.5515 40.1832 21.6068 39.3724C20.6621 38.5616 20.0389 37.4394 19.85 36.2089C19.6612 34.9784 19.9192 33.7209 20.5773 32.6642C21.2353 31.6074 22.25 30.8212 23.4377 30.4479V18.2291C23.4377 17.8147 23.6023 17.4173 23.8953 17.1243C24.1883 16.8312 24.5858 16.6666 25.0002 16.6666V16.6666Z" fill="#006699"/>
</svg>
