<svg width="50" height="50" viewBox="0 0 50 50" fill="none" xmlns="http://www.w3.org/2000/svg">
<path d="M38.9998 33.3306C36.3325 33.3306 34.9558 34.2987 33.7415 35.1526C32.6748 35.9024 31.8322 36.4946 29.9992 36.4946C28.1666 36.4946 27.3241 35.9024 26.2577 35.1526C25.0434 34.2984 23.6667 33.3306 20.9994 33.3306C18.3325 33.3306 16.9557 34.2987 15.7414 35.1526C14.675 35.9024 13.8325 36.4946 11.9999 36.4946C10.1672 36.4946 9.32469 35.9024 8.25833 35.1526C7.04366 34.2987 5.66693 33.3306 3 33.3306V35.9673C4.833 35.9673 5.67517 36.5595 6.74153 37.3097C7.95621 38.1635 9.33259 39.1313 11.9999 39.1313C14.6668 39.1313 16.0435 38.1635 17.2579 37.3097C18.3242 36.5595 19.1667 35.9673 20.9994 35.9673C22.8324 35.9673 23.6746 36.5595 24.7413 37.3097C25.9556 38.1635 27.3323 39.1313 29.9992 39.1313C32.6665 39.1313 34.0432 38.1635 35.2579 37.3097C36.3243 36.5599 37.1668 35.9673 38.9998 35.9673C40.8328 35.9673 41.675 36.5595 42.7417 37.3097C43.956 38.1635 45.3327 39.1313 48 39.1313V36.4946C46.167 36.4946 45.3245 35.9024 44.2581 35.1526C43.0434 34.2987 41.6667 33.3306 38.9998 33.3306Z" fill="#006699"/>
<path d="M38.9998 17.777C36.3325 17.777 34.9558 18.7448 33.7415 19.5986C32.6748 20.3485 31.8322 20.941 29.9992 20.941C28.1666 20.941 27.3241 20.3485 26.2577 19.5986C25.0434 18.7448 23.6667 17.777 20.9994 17.777C18.3325 17.777 16.9557 18.7448 15.7414 19.5986C14.675 20.3485 13.8325 20.941 11.9999 20.941C10.1672 20.941 9.32469 20.3485 8.25833 19.5986C7.04366 18.7448 5.66693 17.777 3 17.777V20.4137C4.833 20.4137 5.67517 21.0059 6.74153 21.7557C7.95621 22.6099 9.33259 23.5778 11.9999 23.5778C14.6668 23.5778 16.0435 22.6096 17.2579 21.7557C18.3242 21.0059 19.1667 20.4137 20.9994 20.4137C22.8324 20.4137 23.6746 21.0059 24.7413 21.7557C25.9556 22.6099 27.3323 23.5778 29.9992 23.5778C32.6665 23.5778 34.0432 22.6096 35.2579 21.7557C36.3243 21.0059 37.1668 20.4137 38.9998 20.4137C40.8328 20.4137 41.675 21.0059 42.7417 21.7557C43.956 22.6099 45.3327 23.5778 48 23.5778V20.941C46.167 20.941 45.3245 20.3485 44.2581 19.5986C43.0434 18.7448 41.6667 17.777 38.9998 17.777Z" fill="#006699"/>
<path d="M38.9998 25.554C36.3325 25.554 34.9558 26.5218 33.7415 27.3756C32.6748 28.1254 31.8322 28.718 29.9992 28.718C28.1666 28.718 27.3241 28.1254 26.2577 27.3756C25.0434 26.5218 23.6667 25.554 20.9994 25.554C18.3325 25.554 16.9557 26.5218 15.7414 27.3756C14.675 28.1254 13.8325 28.718 11.9999 28.718C10.1672 28.718 9.32469 28.1254 8.25833 27.3756C7.04366 26.5218 5.66693 25.554 3 25.554V28.1907C4.833 28.1907 5.67517 28.7829 6.74153 29.5327C7.95621 30.3866 9.33259 31.3547 11.9999 31.3547C14.6668 31.3547 16.0435 30.3866 17.2579 29.5327C18.3242 28.7829 19.1667 28.1907 20.9994 28.1907C22.8324 28.1907 23.6746 28.7829 24.7413 29.5327C25.9556 30.3866 27.3323 31.3547 29.9992 31.3547C32.6665 31.3547 34.0432 30.3866 35.2579 29.5327C36.3243 28.7829 37.1668 28.1907 38.9998 28.1907C40.8328 28.1907 41.675 28.7829 42.7417 29.5327C43.956 30.3866 45.3327 31.3547 48 31.3547V28.718C46.167 28.718 45.3245 28.1254 44.2581 27.3756C43.0434 26.5218 41.6667 25.554 38.9998 25.554Z" fill="#006699"/>
<path d="M44.2581 11.822C43.0434 10.9678 41.6667 10 38.9998 10C36.3325 10 34.9558 10.9678 33.7415 11.822C32.6748 12.5718 31.8322 13.1641 29.9992 13.1641C28.1666 13.1641 27.3241 12.5718 26.2577 11.822C25.0434 10.9678 23.6667 10 20.9994 10C18.3325 10 16.9557 10.9678 15.7414 11.822C14.675 12.5718 13.8325 13.1641 11.9999 13.1641C10.1672 13.1641 9.32469 12.5718 8.25833 11.822C7.04366 10.9678 5.66693 10 3 10V12.6367C4.833 12.6367 5.67517 13.229 6.74153 13.9788C7.95621 14.833 9.33259 15.8008 11.9999 15.8008C14.6668 15.8008 16.0435 14.833 17.2579 13.9788C18.3242 13.229 19.1667 12.6367 20.9994 12.6367C22.8324 12.6367 23.6746 13.229 24.7413 13.9788C25.9556 14.833 27.3323 15.8008 29.9992 15.8008C32.6665 15.8008 34.0432 14.833 35.2579 13.9788C36.3243 13.229 37.1668 12.6367 38.9998 12.6367C40.8328 12.6367 41.675 13.229 42.7417 13.9788C43.956 14.833 45.3327 15.8008 48 15.8008V13.1641C46.167 13.1641 45.3245 12.5718 44.2581 11.822Z" fill="#006699"/>
</svg>
