<svg width="120" height="120" viewBox="0 0 120 120" fill="none" xmlns="http://www.w3.org/2000/svg">
<path d="M15.1502 67.8V67.76L15.8502 67.29C16.0302 67.17 16.2002 67.04 16.3702 66.9C16.3302 66.76 16.2902 66.61 16.2502 66.47C15.6402 66.8 14.9402 67.01 14.0002 67.01C12.0202 67.01 11.0502 66.1 9.94024 65.05C8.69024 63.87 7.27023 62.54 4.49023 62.54V64.51C6.47023 64.51 7.44024 65.42 8.55024 66.47C9.58024 67.44 10.7402 68.51 12.6802 68.86C12.8102 68.81 12.9302 68.76 13.0602 68.7L15.1502 67.8Z" fill="#006699"/>
<path d="M15.1899 68.8799C15.1999 68.8799 15.1999 68.8799 15.2099 68.8799L15.1999 68.6899L15.1899 68.8799Z" fill="#006699"/>
<path d="M113.19 65.05C112.07 66.1 111.11 67.01 109.13 67.01C107.15 67.01 106.19 66.1 105.07 65.05C103.82 63.87 102.4 62.54 99.6201 62.54C96.8401 62.54 95.4201 63.88 94.1701 65.05C93.0501 66.1 92.0901 67.01 90.1101 67.01C88.1301 67.01 87.1701 66.1 86.0501 65.05C84.8001 63.87 83.3801 62.54 80.6001 62.54C77.8201 62.54 76.4001 63.88 75.1501 65.05C74.0301 66.1 73.0701 67.01 71.0901 67.01C69.1101 67.01 68.1501 66.1 67.0301 65.05C65.7801 63.87 64.3601 62.54 61.5801 62.54C58.8001 62.54 57.3801 63.88 56.1301 65.05C55.0101 66.1 54.0501 67.01 52.0701 67.01C50.0901 67.01 49.1301 66.1 48.0101 65.05C46.7601 63.87 45.3401 62.54 42.5601 62.54C41.0601 62.54 39.9701 62.93 39.0801 63.47C39.1001 63.5 39.1201 63.53 39.1401 63.56C39.4201 63.97 39.8001 64.51 40.2501 65.08C40.8701 64.73 41.5901 64.51 42.5601 64.51C44.5401 64.51 45.5001 65.42 46.6201 66.47C47.8701 67.65 49.2901 68.98 52.0701 68.98C54.8501 68.98 56.2701 67.64 57.5201 66.47C58.6401 65.42 59.6001 64.51 61.5801 64.51C63.5601 64.51 64.5201 65.42 65.6401 66.47C66.8901 67.65 68.3101 68.98 71.0901 68.98C73.8701 68.98 75.2901 67.64 76.5401 66.47C77.6601 65.42 78.6201 64.51 80.6001 64.51C82.5801 64.51 83.5401 65.42 84.6601 66.47C85.9101 67.65 87.3301 68.98 90.1101 68.98C92.8901 68.98 94.3101 67.64 95.5601 66.47C96.6801 65.42 97.6401 64.51 99.6201 64.51C101.6 64.51 102.56 65.42 103.68 66.47C104.93 67.65 106.35 68.98 109.13 68.98C111.91 68.98 113.33 67.64 114.58 66.47C115.7 65.42 116.66 64.51 118.64 64.51V62.54C115.86 62.54 114.44 63.88 113.19 65.05Z" fill="#006699"/>
<path d="M77.7202 46.49L76.1402 45.45H60.9302L64.6302 54.12H97.8702V47.31L79.4002 47.4V45.45H77.9602L78.2702 45.66L77.7202 46.49Z" fill="#006699"/>
<path d="M48.9901 28L48.8901 28.13L55.2101 53.5H59.9401L50.0401 28.31L49.5701 28H48.9901Z" fill="#006699"/>
<path d="M48.89 28.13L48.99 28H49.58L50.05 28.31L76.15 45.46L77.73 46.5L78.28 45.66L77.97 45.46L49.87 27H48.48L39.73 38.94C39.91 39.32 40.05 39.69 40.16 40.04L48.89 28.13Z" fill="#006699"/>
<path d="M52.8999 65.45C53.7299 65.27 54.2699 64.76 55.0899 63.99C56.3999 62.76 58.1899 61.07 61.5799 61.07C64.9599 61.07 66.7499 62.75 68.0699 63.99C69.0999 64.96 69.7099 65.54 71.0799 65.54C72.4499 65.54 73.0399 64.99 74.0999 63.99C75.4099 62.76 77.1999 61.07 80.5899 61.07C83.9799 61.07 85.7599 62.76 87.0799 63.99C88.1399 64.99 88.7199 65.54 90.0899 65.54C91.4599 65.54 92.0899 64.96 93.1099 63.99C94.4299 62.76 96.2199 61.07 99.6099 61.07C100.69 61.07 101.59 61.25 102.37 61.52V55.74H52.8999V65.45Z" fill="#006699"/>
<path d="M3.62 77.3801C1.36 83.2601 1 87.3401 1 87.3401C1 87.3401 4.98 90.8601 12.04 93.3101C12.97 85.1601 13.46 74.5701 13.64 70.0801C9.39 71.8901 5.33 72.9201 3.62 77.3801Z" fill="#006699"/>
<path d="M57.4001 87.34C57.4001 87.34 57.0401 83.26 54.7801 77.38C53.0401 72.86 48.9101 71.86 44.6001 70.01C44.7801 74.47 45.2701 85.16 46.2101 93.36C53.3601 90.91 57.4001 87.34 57.4001 87.34Z" fill="#006699"/>
<path d="M37.2299 63.7601C36.1499 72.8101 29.1999 72.4601 29.1999 72.4601C29.1999 72.4601 22.2399 72.8101 21.1699 63.7601C21.0899 63.0901 19.6699 66.5101 16.6899 68.5401L17.5599 86.1401H40.6799L41.5499 68.4301C38.6799 66.3901 37.3099 63.1001 37.2299 63.7601Z" fill="#006699"/>
<path d="M30.9999 48.6401H36.6399H43.6999C43.6999 48.6401 44.1299 46.5401 41.9399 44.1201C40.7499 42.8001 40.6399 41.5401 40.1599 40.0401C40.0499 39.6901 39.9099 39.3201 39.7299 38.9401C39.2799 37.9601 38.5699 36.8701 37.2599 35.5901C33.4499 31.8601 33.1199 33.6301 33.1199 33.6301C33.1199 33.6301 32.9099 35.0301 32.6199 36.5501C32.2699 38.3601 31.7999 40.3501 31.4099 40.3501V34.9201V33.1101H30.9899H29.4499H27.4499H27.0299V40.3501C26.3099 40.3501 25.3199 33.6401 25.3199 33.6401C25.3199 33.6401 24.9899 31.8701 21.1799 35.6001C17.1999 39.4901 18.6899 41.7101 16.4999 44.1301C16.2199 44.4401 15.9899 44.7401 15.7899 45.0301C14.4099 47.0501 14.7499 48.6501 14.7499 48.6501H15.1399H27.4599H30.9999V48.6401Z" fill="#006699"/>
<path d="M39.2998 55.6799C39.5898 55.5399 39.8398 55.2399 40.0098 54.9899C40.6098 54.1399 41.7698 51.6499 41.0898 50.5799C40.9898 50.4199 40.7798 50.2099 40.4298 50.1299C40.4298 50.1499 40.4398 50.1699 40.4398 50.1899C40.3398 52.1499 39.9198 53.9899 39.2998 55.6799Z" fill="#006699"/>
<path d="M18.0099 50.1399C17.6499 50.2199 17.4499 50.4299 17.3499 50.5899C16.6699 51.6599 17.8299 54.1499 18.4299 54.9999C18.6099 55.2499 18.8499 55.5499 19.1399 55.6899C18.5199 53.9999 18.1099 52.1599 17.9999 50.2099C17.9999 50.1799 18.0099 50.1599 18.0099 50.1399Z" fill="#006699"/>
<path d="M29.22 64.0701C24.94 64.0701 19.42 57.8601 19 50.1401C18.99 49.8601 18.74 49.6301 18.47 49.6701C18.22 49.6801 18.03 49.8901 18.01 50.1301C18.01 50.1501 18 50.1701 18 50.1901C18.11 52.1401 18.52 53.9901 19.14 55.6701C21.18 61.2301 25.53 65.0601 29.22 65.0601C31.73 65.0601 34.54 63.2801 36.73 60.4001C37.76 59.0401 38.65 57.4501 39.3 55.6701C39.92 53.9801 40.33 52.1401 40.44 50.1901C40.44 50.1701 40.43 50.1501 40.43 50.1301C40.41 49.8801 40.22 49.6801 39.97 49.6701C39.69 49.6301 39.46 49.8701 39.44 50.1401C39.27 53.1901 38.3 56.0001 36.93 58.2901C34.84 61.7901 31.81 64.0701 29.22 64.0701Z" fill="#006699"/>
</svg>
